<svg xmlns="http://www.w3.org/2000/svg" xmlns:xlink="http://www.w3.org/1999/xlink" xmlns:svgjs="http://svgjs.com/svgjs" width="512" height="512" x="0" y="0" viewBox="0 0 512 512" style="enable-background:new 0 0 512 512" xml:space="preserve"><g><g xmlns="http://www.w3.org/2000/svg"><path d="m436 106h10v10c0 5.523 4.478 10 10 10s10-4.477 10-10v-10h10c5.522 0 10-4.477 10-10s-4.478-10-10-10h-10v-10c0-5.523-4.478-10-10-10s-10 4.477-10 10v10h-10c-5.522 0-10 4.477-10 10s4.478 10 10 10z" fill="#00c0eb" data-original="#000000" style=""></path><path d="m196 246h10v10c0 5.523 4.478 10 10 10s10-4.477 10-10v-10h10c5.522 0 10-4.477 10-10s-4.478-10-10-10h-10v-10c0-5.523-4.478-10-10-10s-10 4.477-10 10v10h-10c-5.522 0-10 4.477-10 10s4.478 10 10 10z" fill="#00c0eb" data-original="#000000" style=""></path><path d="m316 206h10v10c0 5.523 4.478 10 10 10s10-4.477 10-10v-10h10c5.522 0 10-4.477 10-10s-4.478-10-10-10h-10v-10c0-5.523-4.478-10-10-10s-10 4.477-10 10v10h-10c-5.522 0-10 4.477-10 10s4.478 10 10 10z" fill="#00c0eb" data-original="#000000" style=""></path><path d="m296 286h80c16.542 0 30-13.458 30-30v-103.43c0-13.356-5.202-25.914-14.648-35.361l-5.352-5.351v-27.571c11.641-4.127 20-15.249 20-28.287 0-16.542-13.458-30-30-30h-80c-16.542 0-30 13.458-30 30 0 13.038 8.359 24.159 20 28.287v27.571l-5.352 5.351c-9.446 9.447-14.648 22.005-14.648 35.361v103.43c0 16.542 13.458 30 30 30zm0-240h80c5.514 0 10 4.486 10 10s-4.486 10-10 10c-5.522 0-10 4.477-10 10v30h-60v-30c0-5.523-4.478-10-10-10-5.514 0-10-4.486-10-10s4.486-10 10-10zm-10 106.57c0-8.014 3.122-15.55 8.791-21.219l5.351-5.351h71.715l5.351 5.351c5.669 5.669 8.791 13.205 8.791 21.219v103.43c0 5.514-4.486 10-10 10h-80c-5.514 0-10-4.486-10-10v-103.43z" fill="#00c0eb" data-original="#000000" style=""></path><circle cx="396" cy="442" r="10" fill="#00c0eb" data-original="#000000" style=""></circle><path d="m472 336c-4.954 0-9.798.9-14.399 2.677l-92.193 34.079c.385-2.211.592-4.469.592-6.756 0-22.056-17.944-40-40-40h-64.76c-1.718 0-3.413-.443-4.907-1.285l-48.28-27.161c-39.485-22.208-69.137-8.674-90.786 1.206-8.512 3.885-15.863 7.24-21.267 7.24h-86c-5.522 0-10 4.477-10 10v140c0 5.523 4.478 10 10 10h86c5.522 0 10-4.477 10-10v-9.773c32.327 1.478 53.74 10.04 76.286 19.058 25.461 10.184 51.788 20.715 93.714 20.715 18.417 0 45.751-6.193 81.245-18.407 5.223-1.797 7.999-7.487 6.202-12.709-1.798-5.223-7.49-8-12.71-6.202-33.394 11.491-58.54 17.318-74.737 17.318-38.074 0-61.492-9.367-86.286-19.285-23.373-9.349-47.485-18.984-83.714-20.502v-101.601c6.41-1.66 12.868-4.598 19.57-7.657 19.711-8.996 42.053-19.195 72.677-1.97l48.274 27.158c4.479 2.523 9.569 3.857 14.719 3.857h64.76c11.028 0 20 8.972 20 20 0 8.19-5.125 15.68-12.786 18.648-2.29.897-4.717 1.352-7.214 1.352h-101.66c-5.522 0-10 4.477-10 10s4.478 10 10 10h101.66c5.115 0 9.632-.915 14.327-2.65 107.132-39.602 124.261-45.933 124.435-46 2.307-.896 4.742-1.351 7.238-1.351 11.028 0 20 8.972 20 20 0 7.694-4.495 14.796-11.429 18.082-1.748.843-3.448 1.667-6.734 3.232l-2.893-5.786c-2.47-4.94-8.479-6.942-13.416-4.472-4.94 2.47-6.942 8.477-4.473 13.417l2.656 5.313c-6.546 3.004-13.987 6.363-22.123 9.943-5.055 2.225-7.35 8.126-5.124 13.181 2.228 5.063 8.133 7.345 13.181 5.125 19.672-8.658 32.69-14.799 47.467-21.867 13.904-6.589 22.888-20.785 22.888-36.167 0-22.056-17.944-40-40-40zm-386 110h-66v-120h66z" fill="#00c0eb" data-original="#000000" style=""></path></g></g></svg>