<svg xmlns="http://www.w3.org/2000/svg" width="621" height="288" viewBox="0 0 621 288" fill="none"><circle cx="22.5" cy="22.5" r="22.5" fill="#037E8C"></circle><g clip-path="url(#clip0_23_2929)"><path d="M33.4259 20.959C33.4252 20.9585 33.4247 20.9578 33.4241 20.9572L24.0419 11.5754C23.642 11.1753 23.1103 10.9551 22.5448 10.9551C21.9792 10.9551 21.4475 11.1753 21.0474 11.5754L11.6701 20.9525C11.667 20.9557 11.6637 20.959 11.6607 20.9621C10.8394 21.7881 10.8408 23.1282 11.6647 23.9521C12.0411 24.3287 12.5381 24.5466 13.0696 24.5696C13.0913 24.5717 13.1131 24.5728 13.135 24.5728H13.5088V31.477C13.5088 32.8435 14.6206 33.9551 15.987 33.9551H19.6577C20.0298 33.9551 20.3315 33.6533 20.3315 33.2813V27.8682C20.3315 27.2447 20.8388 26.7376 21.4623 26.7376H23.6273C24.2508 26.7376 24.7579 27.2447 24.7579 27.8682V33.2813C24.7579 33.6533 25.0595 33.9551 25.4317 33.9551H29.1023C30.4689 33.9551 31.5806 32.8435 31.5806 31.477V24.5728H31.9273C32.4927 24.5728 33.0244 24.3525 33.4247 23.9523C34.2494 23.1272 34.2497 21.7846 33.4259 20.959ZM32.4716 22.9994C32.3262 23.1449 32.1328 23.2251 31.9273 23.2251H30.9067C30.5346 23.2251 30.2329 23.5267 30.2329 23.8989V31.477C30.2329 32.1003 29.7258 32.6075 29.1023 32.6075H26.1055V27.8682C26.1055 26.5018 24.9939 25.3899 23.6273 25.3899H21.4623C20.0956 25.3899 18.9838 26.5018 18.9838 27.8682V32.6075H15.987C15.3637 32.6075 14.8564 32.1003 14.8564 31.477V23.8989C14.8564 23.5267 14.5548 23.2251 14.1826 23.2251H13.1796C13.1691 23.2244 13.1587 23.2239 13.148 23.2237C12.9473 23.2202 12.759 23.1405 12.6179 22.9993C12.3178 22.6992 12.3178 22.2108 12.6179 21.9106C12.6181 21.9106 12.6181 21.9104 12.6182 21.9102L12.6188 21.9097L22.0006 12.5282C22.1459 12.3828 22.3391 12.3027 22.5448 12.3027C22.7503 12.3027 22.9435 12.3828 23.0889 12.5282L32.4687 21.9078C32.4701 21.9092 32.4716 21.9106 32.473 21.912C32.7715 22.2126 32.771 22.6999 32.4716 22.9994Z" fill="white"></path></g><path d="M71.134 10.552H64.42L64.438 22H63.124V9.4H71.134V10.552ZM74.265 22.09C73.353 22.09 72.531 21.886 71.799 21.478C71.067 21.058 70.491 20.482 70.071 19.75C69.651 19.018 69.441 18.19 69.441 17.266C69.441 16.342 69.651 15.514 70.071 14.782C70.491 14.05 71.067 13.48 71.799 13.072C72.531 12.664 73.353 12.46 74.265 12.46C75.177 12.46 75.999 12.664 76.731 13.072C77.463 13.48 78.033 14.05 78.441 14.782C78.861 15.514 79.071 16.342 79.071 17.266C79.071 18.19 78.861 19.018 78.441 19.75C78.033 20.482 77.463 21.058 76.731 21.478C75.999 21.886 75.177 22.09 74.265 22.09ZM74.265 20.956C74.937 20.956 75.537 20.806 76.065 20.506C76.605 20.194 77.025 19.756 77.325 19.192C77.625 18.628 77.775 17.986 77.775 17.266C77.775 16.546 77.625 15.904 77.325 15.34C77.025 14.776 76.605 14.344 76.065 14.044C75.537 13.732 74.937 13.576 74.265 13.576C73.593 13.576 72.987 13.732 72.447 14.044C71.919 14.344 71.499 14.776 71.187 15.34C70.887 15.904 70.737 16.546 70.737 17.266C70.737 17.986 70.887 18.628 71.187 19.192C71.499 19.756 71.919 20.194 72.447 20.506C72.987 20.806 73.593 20.956 74.265 20.956ZM86.6804 12.46C87.5684 12.46 88.3724 12.664 89.0924 13.072C89.8124 13.468 90.3764 14.032 90.7844 14.764C91.1924 15.496 91.3964 16.33 91.3964 17.266C91.3964 18.214 91.1924 19.054 90.7844 19.786C90.3764 20.518 89.8124 21.088 89.0924 21.496C88.3844 21.892 87.5804 22.09 86.6804 22.09C85.9124 22.09 85.2164 21.934 84.5924 21.622C83.9804 21.298 83.4764 20.83 83.0804 20.218V25.492H81.8024V12.532H83.0264V14.404C83.4104 13.78 83.9144 13.3 84.5384 12.964C85.1744 12.628 85.8884 12.46 86.6804 12.46ZM86.5904 20.956C87.2504 20.956 87.8504 20.806 88.3904 20.506C88.9304 20.194 89.3504 19.756 89.6504 19.192C89.9624 18.628 90.1184 17.986 90.1184 17.266C90.1184 16.546 89.9624 15.91 89.6504 15.358C89.3504 14.794 88.9304 14.356 88.3904 14.044C87.8504 13.732 87.2504 13.576 86.5904 13.576C85.9184 13.576 85.3124 13.732 84.7724 14.044C84.2444 14.356 83.8244 14.794 83.5124 15.358C83.2124 15.91 83.0624 16.546 83.0624 17.266C83.0624 17.986 83.2124 18.628 83.5124 19.192C83.8244 19.756 84.2444 20.194 84.7724 20.506C85.3124 20.806 85.9184 20.956 86.5904 20.956ZM98.0482 22.09C97.1362 22.09 96.3142 21.886 95.5822 21.478C94.8502 21.058 94.2742 20.482 93.8542 19.75C93.4342 19.018 93.2242 18.19 93.2242 17.266C93.2242 16.342 93.4342 15.514 93.8542 14.782C94.2742 14.05 94.8502 13.48 95.5822 13.072C96.3142 12.664 97.1362 12.46 98.0482 12.46C98.9602 12.46 99.7822 12.664 100.514 13.072C101.246 13.48 101.816 14.05 102.224 14.782C102.644 15.514 102.854 16.342 102.854 17.266C102.854 18.19 102.644 19.018 102.224 19.75C101.816 20.482 101.246 21.058 100.514 21.478C99.7822 21.886 98.9602 22.09 98.0482 22.09ZM98.0482 20.956C98.7202 20.956 99.3202 20.806 99.8482 20.506C100.388 20.194 100.808 19.756 101.108 19.192C101.408 18.628 101.558 17.986 101.558 17.266C101.558 16.546 101.408 15.904 101.108 15.34C100.808 14.776 100.388 14.344 99.8482 14.044C99.3202 13.732 98.7202 13.576 98.0482 13.576C97.3762 13.576 96.7702 13.732 96.2302 14.044C95.7022 14.344 95.2822 14.776 94.9702 15.34C94.6702 15.904 94.5202 16.546 94.5202 17.266C94.5202 17.986 94.6702 18.628 94.9702 19.192C95.2822 19.756 95.7022 20.194 96.2302 20.506C96.7702 20.806 97.3762 20.956 98.0482 20.956ZM114.767 20.884V24.286H113.561V22H105.083V24.286H103.877V20.884H104.417C105.053 20.848 105.485 20.38 105.713 19.48C105.941 18.58 106.097 17.32 106.181 15.7L106.307 12.532H113.291V20.884H114.767ZM107.351 15.772C107.291 17.116 107.177 18.226 107.009 19.102C106.841 19.966 106.541 20.56 106.109 20.884H112.013V13.666H107.459L107.351 15.772ZM130.284 10.552H123.57L123.588 22H122.274V9.4H130.284V10.552ZM137.789 17.662H129.869C129.941 18.646 130.319 19.444 131.003 20.056C131.687 20.656 132.551 20.956 133.595 20.956C134.183 20.956 134.723 20.854 135.215 20.65C135.707 20.434 136.133 20.122 136.493 19.714L137.213 20.542C136.793 21.046 136.265 21.43 135.629 21.694C135.005 21.958 134.315 22.09 133.559 22.09C132.587 22.09 131.723 21.886 130.967 21.478C130.223 21.058 129.641 20.482 129.221 19.75C128.801 19.018 128.591 18.19 128.591 17.266C128.591 16.342 128.789 15.514 129.185 14.782C129.593 14.05 130.145 13.48 130.841 13.072C131.549 12.664 132.341 12.46 133.217 12.46C134.093 12.46 134.879 12.664 135.575 13.072C136.271 13.48 136.817 14.05 137.213 14.782C137.609 15.502 137.807 16.33 137.807 17.266L137.789 17.662ZM133.217 13.558C132.305 13.558 131.537 13.852 130.913 14.44C130.301 15.016 129.953 15.772 129.869 16.708H136.583C136.499 15.772 136.145 15.016 135.521 14.44C134.909 13.852 134.141 13.558 133.217 13.558ZM148.183 12.532V22H146.905V13.666H142.369L142.243 16.006C142.147 17.974 141.919 19.486 141.559 20.542C141.199 21.598 140.557 22.126 139.633 22.126C139.381 22.126 139.075 22.078 138.715 21.982L138.805 20.884C139.021 20.932 139.171 20.956 139.255 20.956C139.747 20.956 140.119 20.728 140.371 20.272C140.623 19.816 140.791 19.252 140.875 18.58C140.959 17.908 141.031 17.02 141.091 15.916L141.253 12.532H148.183ZM160.096 17.662H152.176C152.248 18.646 152.626 19.444 153.31 20.056C153.994 20.656 154.858 20.956 155.902 20.956C156.49 20.956 157.03 20.854 157.522 20.65C158.014 20.434 158.44 20.122 158.8 19.714L159.52 20.542C159.1 21.046 158.572 21.43 157.936 21.694C157.312 21.958 156.622 22.09 155.866 22.09C154.894 22.09 154.03 21.886 153.274 21.478C152.53 21.058 151.948 20.482 151.528 19.75C151.108 19.018 150.898 18.19 150.898 17.266C150.898 16.342 151.096 15.514 151.492 14.782C151.9 14.05 152.452 13.48 153.148 13.072C153.856 12.664 154.648 12.46 155.524 12.46C156.4 12.46 157.186 12.664 157.882 13.072C158.578 13.48 159.124 14.05 159.52 14.782C159.916 15.502 160.114 16.33 160.114 17.266L160.096 17.662ZM155.524 13.558C154.612 13.558 153.844 13.852 153.22 14.44C152.608 15.016 152.26 15.772 152.176 16.708H158.89C158.806 15.772 158.452 15.016 157.828 14.44C157.216 13.852 156.448 13.558 155.524 13.558ZM162.943 12.532H164.221V16.726H170.179V12.532H171.457V22H170.179V17.824H164.221V22H162.943V12.532ZM184.323 20.884V24.286H183.117V22H174.639V24.286H173.433V20.884H173.973C174.609 20.848 175.041 20.38 175.269 19.48C175.497 18.58 175.653 17.32 175.737 15.7L175.863 12.532H182.847V20.884H184.323ZM176.907 15.772C176.847 17.116 176.733 18.226 176.565 19.102C176.397 19.966 176.097 20.56 175.665 20.884H181.569V13.666H177.015L176.907 15.772ZM195.112 17.788H193.06V22H191.782V17.788H189.73L186.832 22H185.302L188.704 17.122L185.572 12.532H186.958L189.73 16.69H191.782V12.532H193.06V16.69H195.112L197.902 12.532H199.288L196.156 17.14L199.558 22H198.028L195.112 17.788ZM201.685 12.532H202.963V20.056L209.281 12.532H210.415V22H209.137V14.476L202.837 22H201.685V12.532ZM217.516 17.788H215.356V22H214.078V12.532H215.356V16.69H217.534L220.864 12.532H222.25L218.524 17.122L222.52 22H221.008L217.516 17.788Z" fill="#121214"></path><circle cx="22.5" cy="107.5" r="22.5" fill="#037E8C"></circle><path d="M71.026 102.662H63.106C63.178 103.646 63.556 104.444 64.24 105.056C64.924 105.656 65.788 105.956 66.832 105.956C67.42 105.956 67.96 105.854 68.452 105.65C68.944 105.434 69.37 105.122 69.73 104.714L70.45 105.542C70.03 106.046 69.502 106.43 68.866 106.694C68.242 106.958 67.552 107.09 66.796 107.09C65.824 107.09 64.96 106.886 64.204 106.478C63.46 106.058 62.878 105.482 62.458 104.75C62.038 104.018 61.828 103.19 61.828 102.266C61.828 101.342 62.026 100.514 62.422 99.782C62.83 99.05 63.382 98.48 64.078 98.072C64.786 97.664 65.578 97.46 66.454 97.46C67.33 97.46 68.116 97.664 68.812 98.072C69.508 98.48 70.054 99.05 70.45 99.782C70.846 100.502 71.044 101.33 71.044 102.266L71.026 102.662ZM66.454 98.558C65.542 98.558 64.774 98.852 64.15 99.44C63.538 100.016 63.19 100.772 63.106 101.708H69.82C69.736 100.772 69.382 100.016 68.758 99.44C68.146 98.852 67.378 98.558 66.454 98.558ZM79.4116 107L76.4056 103.04L73.3816 107H71.9416L75.6856 102.14L72.1216 97.532H73.5616L76.4056 101.24L79.2496 97.532H80.6536L77.0896 102.14L80.8696 107H79.4116ZM87.8748 97.46C88.7628 97.46 89.5668 97.664 90.2868 98.072C91.0068 98.468 91.5708 99.032 91.9788 99.764C92.3868 100.496 92.5908 101.33 92.5908 102.266C92.5908 103.214 92.3868 104.054 91.9788 104.786C91.5708 105.518 91.0068 106.088 90.2868 106.496C89.5788 106.892 88.7748 107.09 87.8748 107.09C87.1068 107.09 86.4108 106.934 85.7868 106.622C85.1748 106.298 84.6708 105.83 84.2748 105.218V110.492H82.9968V97.532H84.2208V99.404C84.6048 98.78 85.1088 98.3 85.7328 97.964C86.3688 97.628 87.0828 97.46 87.8748 97.46ZM87.7848 105.956C88.4448 105.956 89.0448 105.806 89.5848 105.506C90.1248 105.194 90.5448 104.756 90.8448 104.192C91.1568 103.628 91.3128 102.986 91.3128 102.266C91.3128 101.546 91.1568 100.91 90.8448 100.358C90.5448 99.794 90.1248 99.356 89.5848 99.044C89.0448 98.732 88.4448 98.576 87.7848 98.576C87.1128 98.576 86.5068 98.732 85.9668 99.044C85.4388 99.356 85.0188 99.794 84.7068 100.358C84.4068 100.91 84.2568 101.546 84.2568 102.266C84.2568 102.986 84.4068 103.628 84.7068 104.192C85.0188 104.756 85.4388 105.194 85.9668 105.506C86.5068 105.806 87.1128 105.956 87.7848 105.956ZM103.44 102.662H95.5201C95.5921 103.646 95.9701 104.444 96.6541 105.056C97.3381 105.656 98.2021 105.956 99.2461 105.956C99.8341 105.956 100.374 105.854 100.866 105.65C101.358 105.434 101.784 105.122 102.144 104.714L102.864 105.542C102.444 106.046 101.916 106.43 101.28 106.694C100.656 106.958 99.9661 107.09 99.2101 107.09C98.2381 107.09 97.3741 106.886 96.6181 106.478C95.8741 106.058 95.2921 105.482 94.8721 104.75C94.4521 104.018 94.2421 103.19 94.2421 102.266C94.2421 101.342 94.4401 100.514 94.8361 99.782C95.2441 99.05 95.7961 98.48 96.4921 98.072C97.2001 97.664 97.9921 97.46 98.8681 97.46C99.7441 97.46 100.53 97.664 101.226 98.072C101.922 98.48 102.468 99.05 102.864 99.782C103.26 100.502 103.458 101.33 103.458 102.266L103.44 102.662ZM98.8681 98.558C97.9561 98.558 97.1881 98.852 96.5641 99.44C95.9521 100.016 95.6041 100.772 95.5201 101.708H102.234C102.15 100.772 101.796 100.016 101.172 99.44C100.56 98.852 99.7921 98.558 98.8681 98.558ZM107.283 99.386C107.583 98.75 108.027 98.27 108.615 97.946C109.215 97.622 109.953 97.46 110.829 97.46V98.702L110.523 98.684C109.527 98.684 108.747 98.99 108.183 99.602C107.619 100.214 107.337 101.072 107.337 102.176V107H106.059V97.532H107.283V99.386ZM113.143 97.532H114.421V107H113.143V97.532ZM113.791 95.462C113.527 95.462 113.305 95.372 113.125 95.192C112.945 95.012 112.855 94.796 112.855 94.544C112.855 94.304 112.945 94.094 113.125 93.914C113.305 93.734 113.527 93.644 113.791 93.644C114.055 93.644 114.277 93.734 114.457 93.914C114.637 94.082 114.727 94.286 114.727 94.526C114.727 94.79 114.637 95.012 114.457 95.192C114.277 95.372 114.055 95.462 113.791 95.462ZM126.221 102.662H118.301C118.373 103.646 118.751 104.444 119.435 105.056C120.119 105.656 120.983 105.956 122.027 105.956C122.615 105.956 123.155 105.854 123.647 105.65C124.139 105.434 124.565 105.122 124.925 104.714L125.645 105.542C125.225 106.046 124.697 106.43 124.061 106.694C123.437 106.958 122.747 107.09 121.991 107.09C121.019 107.09 120.155 106.886 119.399 106.478C118.655 106.058 118.073 105.482 117.653 104.75C117.233 104.018 117.023 103.19 117.023 102.266C117.023 101.342 117.221 100.514 117.617 99.782C118.025 99.05 118.577 98.48 119.273 98.072C119.981 97.664 120.773 97.46 121.649 97.46C122.525 97.46 123.311 97.664 124.007 98.072C124.703 98.48 125.249 99.05 125.645 99.782C126.041 100.502 126.239 101.33 126.239 102.266L126.221 102.662ZM121.649 98.558C120.737 98.558 119.969 98.852 119.345 99.44C118.733 100.016 118.385 100.772 118.301 101.708H125.015C124.931 100.772 124.577 100.016 123.953 99.44C123.341 98.852 122.573 98.558 121.649 98.558ZM133.665 97.46C134.853 97.46 135.795 97.808 136.491 98.504C137.199 99.188 137.553 100.19 137.553 101.51V107H136.275V101.636C136.275 100.652 136.029 99.902 135.537 99.386C135.045 98.87 134.343 98.612 133.431 98.612C132.411 98.612 131.601 98.918 131.001 99.53C130.413 100.13 130.119 100.964 130.119 102.032V107H128.841V97.532H130.065V99.278C130.413 98.702 130.893 98.258 131.505 97.946C132.129 97.622 132.849 97.46 133.665 97.46ZM144.981 107.09C144.045 107.09 143.205 106.886 142.461 106.478C141.729 106.07 141.153 105.5 140.733 104.768C140.313 104.024 140.103 103.19 140.103 102.266C140.103 101.342 140.313 100.514 140.733 99.782C141.153 99.05 141.729 98.48 142.461 98.072C143.205 97.664 144.045 97.46 144.981 97.46C145.797 97.46 146.523 97.622 147.159 97.946C147.807 98.258 148.317 98.72 148.689 99.332L147.735 99.98C147.423 99.512 147.027 99.164 146.547 98.936C146.067 98.696 145.545 98.576 144.981 98.576C144.297 98.576 143.679 98.732 143.127 99.044C142.587 99.344 142.161 99.776 141.849 100.34C141.549 100.904 141.399 101.546 141.399 102.266C141.399 102.998 141.549 103.646 141.849 104.21C142.161 104.762 142.587 105.194 143.127 105.506C143.679 105.806 144.297 105.956 144.981 105.956C145.545 105.956 146.067 105.842 146.547 105.614C147.027 105.386 147.423 105.038 147.735 104.57L148.689 105.218C148.317 105.83 147.807 106.298 147.159 106.622C146.511 106.934 145.785 107.09 144.981 107.09ZM159.286 102.662H151.366C151.438 103.646 151.816 104.444 152.5 105.056C153.184 105.656 154.048 105.956 155.092 105.956C155.68 105.956 156.22 105.854 156.712 105.65C157.204 105.434 157.63 105.122 157.99 104.714L158.71 105.542C158.29 106.046 157.762 106.43 157.126 106.694C156.502 106.958 155.812 107.09 155.056 107.09C154.084 107.09 153.22 106.886 152.464 106.478C151.72 106.058 151.138 105.482 150.718 104.75C150.298 104.018 150.088 103.19 150.088 102.266C150.088 101.342 150.286 100.514 150.682 99.782C151.09 99.05 151.642 98.48 152.338 98.072C153.046 97.664 153.838 97.46 154.714 97.46C155.59 97.46 156.376 97.664 157.072 98.072C157.768 98.48 158.314 99.05 158.71 99.782C159.106 100.502 159.304 101.33 159.304 102.266L159.286 102.662ZM154.714 98.558C153.802 98.558 153.034 98.852 152.41 99.44C151.798 100.016 151.45 100.772 151.366 101.708H158.08C157.996 100.772 157.642 100.016 157.018 99.44C156.406 98.852 155.638 98.558 154.714 98.558ZM169.465 94.292C171.073 94.292 172.507 94.628 173.767 95.3C175.039 95.96 176.029 96.896 176.737 98.108C177.445 99.308 177.799 100.682 177.799 102.23C177.799 103.754 177.535 104.948 177.007 105.812C176.479 106.664 175.747 107.09 174.811 107.09C174.223 107.09 173.743 106.916 173.371 106.568C173.011 106.22 172.813 105.74 172.777 105.128C172.417 105.752 171.925 106.238 171.301 106.586C170.677 106.922 169.969 107.09 169.177 107.09C168.337 107.09 167.575 106.892 166.891 106.496C166.219 106.088 165.685 105.53 165.289 104.822C164.905 104.114 164.713 103.316 164.713 102.428C164.713 101.54 164.905 100.748 165.289 100.052C165.685 99.344 166.219 98.792 166.891 98.396C167.575 98 168.337 97.802 169.177 97.802C169.945 97.802 170.635 97.97 171.247 98.306C171.871 98.63 172.369 99.092 172.741 99.692V97.874H173.911V104.696C173.911 105.176 174.013 105.524 174.217 105.74C174.421 105.956 174.691 106.064 175.027 106.064C175.591 106.064 176.035 105.728 176.359 105.056C176.695 104.384 176.863 103.448 176.863 102.248C176.863 100.856 176.551 99.632 175.927 98.576C175.303 97.508 174.427 96.68 173.299 96.092C172.183 95.504 170.905 95.21 169.465 95.21C168.013 95.21 166.723 95.516 165.595 96.128C164.479 96.728 163.609 97.58 162.985 98.684C162.361 99.776 162.049 101.024 162.049 102.428C162.049 103.832 162.355 105.086 162.967 106.19C163.591 107.294 164.455 108.152 165.559 108.764C166.675 109.376 167.953 109.682 169.393 109.682C169.957 109.682 170.545 109.616 171.157 109.484C171.781 109.352 172.345 109.154 172.849 108.89L173.155 109.772C172.639 110.036 172.039 110.24 171.355 110.384C170.683 110.528 170.029 110.6 169.393 110.6C167.761 110.6 166.315 110.252 165.055 109.556C163.795 108.86 162.811 107.894 162.103 106.658C161.407 105.41 161.059 104 161.059 102.428C161.059 100.844 161.413 99.44 162.121 98.216C162.829 96.98 163.819 96.02 165.091 95.336C166.375 94.64 167.833 94.292 169.465 94.292ZM169.339 106.046C169.987 106.046 170.569 105.896 171.085 105.596C171.601 105.296 172.009 104.876 172.309 104.336C172.609 103.784 172.759 103.148 172.759 102.428C172.759 101.72 172.609 101.096 172.309 100.556C172.009 100.004 171.601 99.584 171.085 99.296C170.569 98.996 169.987 98.846 169.339 98.846C168.679 98.846 168.085 98.996 167.557 99.296C167.041 99.596 166.633 100.016 166.333 100.556C166.045 101.096 165.901 101.72 165.901 102.428C165.901 103.136 166.045 103.766 166.333 104.318C166.633 104.858 167.041 105.284 167.557 105.596C168.085 105.896 168.679 106.046 169.339 106.046ZM189.269 97.532V105.848C189.269 107.456 188.873 108.644 188.081 109.412C187.301 110.192 186.119 110.582 184.535 110.582C183.659 110.582 182.825 110.45 182.033 110.186C181.253 109.934 180.617 109.58 180.125 109.124L180.773 108.152C181.229 108.56 181.781 108.878 182.429 109.106C183.089 109.334 183.779 109.448 184.499 109.448C185.699 109.448 186.581 109.166 187.145 108.602C187.709 108.05 187.991 107.186 187.991 106.01V104.804C187.595 105.404 187.073 105.86 186.425 106.172C185.789 106.484 185.081 106.64 184.301 106.64C183.413 106.64 182.603 106.448 181.871 106.064C181.151 105.668 180.581 105.122 180.161 104.426C179.753 103.718 179.549 102.92 179.549 102.032C179.549 101.144 179.753 100.352 180.161 99.656C180.581 98.96 181.151 98.42 181.871 98.036C182.591 97.652 183.401 97.46 184.301 97.46C185.105 97.46 185.831 97.622 186.479 97.946C187.127 98.27 187.649 98.738 188.045 99.35V97.532H189.269ZM184.427 105.506C185.111 105.506 185.729 105.362 186.281 105.074C186.833 104.774 187.259 104.36 187.559 103.832C187.871 103.304 188.027 102.704 188.027 102.032C188.027 101.36 187.871 100.766 187.559 100.25C187.259 99.722 186.833 99.314 186.281 99.026C185.741 98.726 185.123 98.576 184.427 98.576C183.743 98.576 183.125 98.72 182.573 99.008C182.033 99.296 181.607 99.704 181.295 100.232C180.995 100.76 180.845 101.36 180.845 102.032C180.845 102.704 180.995 103.304 181.295 103.832C181.607 104.36 182.033 104.774 182.573 105.074C183.125 105.362 183.743 105.506 184.427 105.506ZM194.067 99.386C194.367 98.75 194.811 98.27 195.399 97.946C195.999 97.622 196.737 97.46 197.613 97.46V98.702L197.307 98.684C196.311 98.684 195.531 98.99 194.967 99.602C194.403 100.214 194.121 101.072 194.121 102.176V107H192.843V97.532H194.067V99.386ZM203.709 107.09C202.797 107.09 201.975 106.886 201.243 106.478C200.511 106.058 199.935 105.482 199.515 104.75C199.095 104.018 198.885 103.19 198.885 102.266C198.885 101.342 199.095 100.514 199.515 99.782C199.935 99.05 200.511 98.48 201.243 98.072C201.975 97.664 202.797 97.46 203.709 97.46C204.621 97.46 205.443 97.664 206.175 98.072C206.907 98.48 207.477 99.05 207.885 99.782C208.305 100.514 208.515 101.342 208.515 102.266C208.515 103.19 208.305 104.018 207.885 104.75C207.477 105.482 206.907 106.058 206.175 106.478C205.443 106.886 204.621 107.09 203.709 107.09ZM203.709 105.956C204.381 105.956 204.981 105.806 205.509 105.506C206.049 105.194 206.469 104.756 206.769 104.192C207.069 103.628 207.219 102.986 207.219 102.266C207.219 101.546 207.069 100.904 206.769 100.34C206.469 99.776 206.049 99.344 205.509 99.044C204.981 98.732 204.381 98.576 203.709 98.576C203.037 98.576 202.431 98.732 201.891 99.044C201.363 99.344 200.943 99.776 200.631 100.34C200.331 100.904 200.181 101.546 200.181 102.266C200.181 102.986 200.331 103.628 200.631 104.192C200.943 104.756 201.363 105.194 201.891 105.506C202.431 105.806 203.037 105.956 203.709 105.956ZM219.656 97.532V107H218.432V105.272C218.096 105.848 217.634 106.298 217.046 106.622C216.458 106.934 215.786 107.09 215.03 107.09C213.794 107.09 212.816 106.748 212.096 106.064C211.388 105.368 211.034 104.354 211.034 103.022V97.532H212.312V102.896C212.312 103.892 212.558 104.648 213.05 105.164C213.542 105.68 214.244 105.938 215.156 105.938C216.152 105.938 216.938 105.638 217.514 105.038C218.09 104.426 218.378 103.58 218.378 102.5V97.532H219.656ZM228.113 97.46C229.001 97.46 229.805 97.664 230.525 98.072C231.245 98.468 231.809 99.032 232.217 99.764C232.625 100.496 232.829 101.33 232.829 102.266C232.829 103.214 232.625 104.054 232.217 104.786C231.809 105.518 231.245 106.088 230.525 106.496C229.817 106.892 229.013 107.09 228.113 107.09C227.345 107.09 226.649 106.934 226.025 106.622C225.413 106.298 224.909 105.83 224.513 105.218V110.492H223.235V97.532H224.459V99.404C224.843 98.78 225.347 98.3 225.971 97.964C226.607 97.628 227.321 97.46 228.113 97.46ZM228.023 105.956C228.683 105.956 229.283 105.806 229.823 105.506C230.363 105.194 230.783 104.756 231.083 104.192C231.395 103.628 231.551 102.986 231.551 102.266C231.551 101.546 231.395 100.91 231.083 100.358C230.783 99.794 230.363 99.356 229.823 99.044C229.283 98.732 228.683 98.576 228.023 98.576C227.351 98.576 226.745 98.732 226.205 99.044C225.677 99.356 225.257 99.794 224.945 100.358C224.645 100.91 224.495 101.546 224.495 102.266C224.495 102.986 224.645 103.628 224.945 104.192C225.257 104.756 225.677 105.194 226.205 105.506C226.745 105.806 227.351 105.956 228.023 105.956ZM244.2 97.532V105.848C244.2 107.456 243.804 108.644 243.012 109.412C242.232 110.192 241.05 110.582 239.466 110.582C238.59 110.582 237.756 110.45 236.964 110.186C236.184 109.934 235.548 109.58 235.056 109.124L235.704 108.152C236.16 108.56 236.712 108.878 237.36 109.106C238.02 109.334 238.71 109.448 239.43 109.448C240.63 109.448 241.512 109.166 242.076 108.602C242.64 108.05 242.922 107.186 242.922 106.01V104.804C242.526 105.404 242.004 105.86 241.356 106.172C240.72 106.484 240.012 106.64 239.232 106.64C238.344 106.64 237.534 106.448 236.802 106.064C236.082 105.668 235.512 105.122 235.092 104.426C234.684 103.718 234.48 102.92 234.48 102.032C234.48 101.144 234.684 100.352 235.092 99.656C235.512 98.96 236.082 98.42 236.802 98.036C237.522 97.652 238.332 97.46 239.232 97.46C240.036 97.46 240.762 97.622 241.41 97.946C242.058 98.27 242.58 98.738 242.976 99.35V97.532H244.2ZM239.358 105.506C240.042 105.506 240.66 105.362 241.212 105.074C241.764 104.774 242.19 104.36 242.49 103.832C242.802 103.304 242.958 102.704 242.958 102.032C242.958 101.36 242.802 100.766 242.49 100.25C242.19 99.722 241.764 99.314 241.212 99.026C240.672 98.726 240.054 98.576 239.358 98.576C238.674 98.576 238.056 98.72 237.504 99.008C236.964 99.296 236.538 99.704 236.226 100.232C235.926 100.76 235.776 101.36 235.776 102.032C235.776 102.704 235.926 103.304 236.226 103.832C236.538 104.36 236.964 104.774 237.504 105.074C238.056 105.362 238.674 105.506 239.358 105.506ZM248.998 99.386C249.298 98.75 249.742 98.27 250.33 97.946C250.93 97.622 251.668 97.46 252.544 97.46V98.702L252.238 98.684C251.242 98.684 250.462 98.99 249.898 99.602C249.334 100.214 249.052 101.072 249.052 102.176V107H247.774V97.532H248.998V99.386ZM258.153 97.46C259.389 97.46 260.337 97.772 260.997 98.396C261.657 99.008 261.987 99.92 261.987 101.132V107H260.763V105.524C260.475 106.016 260.049 106.4 259.485 106.676C258.933 106.952 258.273 107.09 257.505 107.09C256.449 107.09 255.609 106.838 254.985 106.334C254.361 105.83 254.049 105.164 254.049 104.336C254.049 103.532 254.337 102.884 254.913 102.392C255.501 101.9 256.431 101.654 257.703 101.654H260.709V101.078C260.709 100.262 260.481 99.644 260.025 99.224C259.569 98.792 258.903 98.576 258.027 98.576C257.427 98.576 256.851 98.678 256.299 98.882C255.747 99.074 255.273 99.344 254.877 99.692L254.301 98.738C254.781 98.33 255.357 98.018 256.029 97.802C256.701 97.574 257.409 97.46 258.153 97.46ZM257.703 106.082C258.423 106.082 259.041 105.92 259.557 105.596C260.073 105.26 260.457 104.78 260.709 104.156V102.608H257.739C256.119 102.608 255.309 103.172 255.309 104.3C255.309 104.852 255.519 105.29 255.939 105.614C256.359 105.926 256.947 106.082 257.703 106.082ZM270.282 97.46C271.47 97.46 272.412 97.808 273.108 98.504C273.816 99.188 274.17 100.19 274.17 101.51V107H272.892V101.636C272.892 100.652 272.646 99.902 272.154 99.386C271.662 98.87 270.96 98.612 270.048 98.612C269.028 98.612 268.218 98.918 267.618 99.53C267.03 100.13 266.736 100.964 266.736 102.032V107H265.458V97.532H266.682V99.278C267.03 98.702 267.51 98.258 268.122 97.946C268.746 97.622 269.466 97.46 270.282 97.46ZM286.315 93.644V107H285.091V105.128C284.707 105.764 284.197 106.25 283.561 106.586C282.937 106.922 282.229 107.09 281.437 107.09C280.549 107.09 279.745 106.886 279.025 106.478C278.305 106.07 277.741 105.5 277.333 104.768C276.925 104.036 276.721 103.202 276.721 102.266C276.721 101.33 276.925 100.496 277.333 99.764C277.741 99.032 278.305 98.468 279.025 98.072C279.745 97.664 280.549 97.46 281.437 97.46C282.205 97.46 282.895 97.622 283.507 97.946C284.131 98.258 284.641 98.72 285.037 99.332V93.644H286.315ZM281.545 105.956C282.205 105.956 282.799 105.806 283.327 105.506C283.867 105.194 284.287 104.756 284.587 104.192C284.899 103.628 285.055 102.986 285.055 102.266C285.055 101.546 284.899 100.904 284.587 100.34C284.287 99.776 283.867 99.344 283.327 99.044C282.799 98.732 282.205 98.576 281.545 98.576C280.873 98.576 280.267 98.732 279.727 99.044C279.199 99.344 278.779 99.776 278.467 100.34C278.167 100.904 278.017 101.546 278.017 102.266C278.017 102.986 278.167 103.628 278.467 104.192C278.779 104.756 279.199 105.194 279.727 105.506C280.267 105.806 280.873 105.956 281.545 105.956ZM290 107.09C289.736 107.09 289.508 106.994 289.316 106.802C289.136 106.61 289.046 106.376 289.046 106.1C289.046 105.824 289.136 105.596 289.316 105.416C289.508 105.224 289.736 105.128 290 105.128C290.264 105.128 290.492 105.224 290.684 105.416C290.876 105.596 290.972 105.824 290.972 106.1C290.972 106.376 290.876 106.61 290.684 106.802C290.492 106.994 290.264 107.09 290 107.09ZM294.912 99.386C295.212 98.75 295.656 98.27 296.244 97.946C296.844 97.622 297.582 97.46 298.458 97.46V98.702L298.152 98.684C297.156 98.684 296.376 98.99 295.812 99.602C295.248 100.214 294.966 101.072 294.966 102.176V107H293.688V97.532H294.912V99.386ZM309.445 97.532V107H308.221V105.272C307.885 105.848 307.423 106.298 306.835 106.622C306.247 106.934 305.575 107.09 304.819 107.09C303.583 107.09 302.605 106.748 301.885 106.064C301.177 105.368 300.823 104.354 300.823 103.022V97.532H302.101V102.896C302.101 103.892 302.347 104.648 302.839 105.164C303.331 105.68 304.033 105.938 304.945 105.938C305.941 105.938 306.727 105.638 307.303 105.038C307.879 104.426 308.167 103.58 308.167 102.5V97.532H309.445Z" fill="#121214"></path><path d="M32.8027 97.9785H12.1973C10.9872 97.9785 10 98.9646 10 100.176V114.824C10 116.031 10.9828 117.021 12.1973 117.021H32.8027C34.0098 117.021 35 116.039 35 114.824V100.176C35 98.9688 34.0172 97.9785 32.8027 97.9785ZM32.4993 99.4434L22.5466 109.396L12.5078 99.4434H32.4993ZM11.4648 114.521V100.472L18.5195 107.466L11.4648 114.521ZM12.5006 115.557L19.5597 108.498L22.0332 110.95C22.3195 111.234 22.7816 111.233 23.0667 110.948L25.4785 108.536L32.4994 115.557H12.5006ZM33.5352 114.521L26.5143 107.5L33.5352 100.479V114.521Z" fill="white"></path><circle cx="356.5" cy="22.5" r="22.5" fill="#037E8C"></circle><path d="M404.09 19.24H400.742V22.516H399.608V19.24H396.26V18.178H399.608V14.884H400.742V18.178H404.09V19.24ZM415.006 12.4V13.318L409.732 25H408.328L413.512 13.552H407.032V15.91H405.754V12.4H415.006ZM425.348 12.292C427.016 12.292 428.294 12.844 429.182 13.948C430.07 15.04 430.514 16.588 430.514 18.592C430.514 19.996 430.274 21.184 429.794 22.156C429.314 23.128 428.642 23.866 427.778 24.37C426.914 24.862 425.906 25.108 424.754 25.108C423.506 25.108 422.51 24.88 421.766 24.424L422.288 23.38C422.888 23.776 423.704 23.974 424.736 23.974C426.128 23.974 427.22 23.536 428.012 22.66C428.804 21.772 429.2 20.488 429.2 18.808C429.2 18.496 429.182 18.154 429.146 17.782C428.834 18.466 428.336 19 427.652 19.384C426.968 19.756 426.182 19.942 425.294 19.942C424.466 19.942 423.728 19.786 423.08 19.474C422.444 19.162 421.946 18.724 421.586 18.16C421.226 17.584 421.046 16.918 421.046 16.162C421.046 15.394 421.232 14.716 421.604 14.128C421.976 13.54 422.486 13.09 423.134 12.778C423.794 12.454 424.532 12.292 425.348 12.292ZM425.492 18.844C426.128 18.844 426.686 18.724 427.166 18.484C427.658 18.244 428.042 17.914 428.318 17.494C428.594 17.074 428.732 16.606 428.732 16.09C428.732 15.61 428.6 15.166 428.336 14.758C428.084 14.35 427.706 14.02 427.202 13.768C426.698 13.516 426.098 13.39 425.402 13.39C424.49 13.39 423.746 13.642 423.17 14.146C422.606 14.638 422.324 15.298 422.324 16.126C422.324 16.954 422.606 17.614 423.17 18.106C423.746 18.598 424.52 18.844 425.492 18.844ZM440.962 23.848V25H432.124V24.082L437.362 18.952C438.022 18.304 438.466 17.746 438.694 17.278C438.934 16.798 439.054 16.318 439.054 15.838C439.054 15.094 438.796 14.518 438.28 14.11C437.776 13.69 437.05 13.48 436.102 13.48C434.626 13.48 433.48 13.948 432.664 14.884L431.746 14.092C432.238 13.516 432.862 13.072 433.618 12.76C434.386 12.448 435.25 12.292 436.21 12.292C437.494 12.292 438.508 12.598 439.252 13.21C440.008 13.81 440.386 14.638 440.386 15.694C440.386 16.342 440.242 16.966 439.954 17.566C439.666 18.166 439.12 18.856 438.316 19.636L434.032 23.848H440.962ZM449.806 18.394C450.598 18.658 451.204 19.054 451.624 19.582C452.056 20.11 452.272 20.746 452.272 21.49C452.272 22.222 452.074 22.864 451.678 23.416C451.282 23.956 450.712 24.376 449.968 24.676C449.236 24.964 448.372 25.108 447.376 25.108C445.864 25.108 444.676 24.784 443.812 24.136C442.948 23.488 442.516 22.606 442.516 21.49C442.516 20.734 442.72 20.098 443.128 19.582C443.548 19.054 444.154 18.658 444.946 18.394C444.298 18.142 443.806 17.782 443.47 17.314C443.134 16.834 442.966 16.27 442.966 15.622C442.966 14.602 443.362 13.792 444.154 13.192C444.958 12.592 446.032 12.292 447.376 12.292C448.264 12.292 449.038 12.43 449.698 12.706C450.37 12.97 450.892 13.354 451.264 13.858C451.636 14.362 451.822 14.95 451.822 15.622C451.822 16.27 451.648 16.834 451.3 17.314C450.952 17.782 450.454 18.142 449.806 18.394ZM444.262 15.658C444.262 16.354 444.538 16.906 445.09 17.314C445.642 17.722 446.404 17.926 447.376 17.926C448.348 17.926 449.11 17.722 449.662 17.314C450.226 16.906 450.508 16.36 450.508 15.676C450.508 14.968 450.22 14.41 449.644 14.002C449.08 13.594 448.324 13.39 447.376 13.39C446.416 13.39 445.654 13.594 445.09 14.002C444.538 14.41 444.262 14.962 444.262 15.658ZM447.376 24.01C448.492 24.01 449.362 23.782 449.986 23.326C450.622 22.87 450.94 22.252 450.94 21.472C450.94 20.692 450.622 20.08 449.986 19.636C449.362 19.18 448.492 18.952 447.376 18.952C446.272 18.952 445.402 19.18 444.766 19.636C444.142 20.08 443.83 20.692 443.83 21.472C443.83 22.264 444.142 22.888 444.766 23.344C445.39 23.788 446.26 24.01 447.376 24.01ZM469.488 21.688H466.968V25H465.672V21.688H458.562V20.752L465.24 12.4H466.68L460.236 20.536H465.708V17.62H466.968V20.536H469.488V21.688ZM479.212 23.848V25H470.374V24.082L475.612 18.952C476.272 18.304 476.716 17.746 476.944 17.278C477.184 16.798 477.304 16.318 477.304 15.838C477.304 15.094 477.046 14.518 476.53 14.11C476.026 13.69 475.3 13.48 474.352 13.48C472.876 13.48 471.73 13.948 470.914 14.884L469.996 14.092C470.488 13.516 471.112 13.072 471.868 12.76C472.636 12.448 473.5 12.292 474.46 12.292C475.744 12.292 476.758 12.598 477.502 13.21C478.258 13.81 478.636 14.638 478.636 15.694C478.636 16.342 478.492 16.966 478.204 17.566C477.916 18.166 477.37 18.856 476.566 19.636L472.282 23.848H479.212ZM488.056 18.394C488.848 18.658 489.454 19.054 489.874 19.582C490.306 20.11 490.522 20.746 490.522 21.49C490.522 22.222 490.324 22.864 489.928 23.416C489.532 23.956 488.962 24.376 488.218 24.676C487.486 24.964 486.622 25.108 485.626 25.108C484.114 25.108 482.926 24.784 482.062 24.136C481.198 23.488 480.766 22.606 480.766 21.49C480.766 20.734 480.97 20.098 481.378 19.582C481.798 19.054 482.404 18.658 483.196 18.394C482.548 18.142 482.056 17.782 481.72 17.314C481.384 16.834 481.216 16.27 481.216 15.622C481.216 14.602 481.612 13.792 482.404 13.192C483.208 12.592 484.282 12.292 485.626 12.292C486.514 12.292 487.288 12.43 487.948 12.706C488.62 12.97 489.142 13.354 489.514 13.858C489.886 14.362 490.072 14.95 490.072 15.622C490.072 16.27 489.898 16.834 489.55 17.314C489.202 17.782 488.704 18.142 488.056 18.394ZM482.512 15.658C482.512 16.354 482.788 16.906 483.34 17.314C483.892 17.722 484.654 17.926 485.626 17.926C486.598 17.926 487.36 17.722 487.912 17.314C488.476 16.906 488.758 16.36 488.758 15.676C488.758 14.968 488.47 14.41 487.894 14.002C487.33 13.594 486.574 13.39 485.626 13.39C484.666 13.39 483.904 13.594 483.34 14.002C482.788 14.41 482.512 14.962 482.512 15.658ZM485.626 24.01C486.742 24.01 487.612 23.782 488.236 23.326C488.872 22.87 489.19 22.252 489.19 21.472C489.19 20.692 488.872 20.08 488.236 19.636C487.612 19.18 486.742 18.952 485.626 18.952C484.522 18.952 483.652 19.18 483.016 19.636C482.392 20.08 482.08 20.692 482.08 21.472C482.08 22.264 482.392 22.888 483.016 23.344C483.64 23.788 484.51 24.01 485.626 24.01ZM492.461 19.564H497.177V20.68H492.461V19.564ZM504.353 25.108C503.381 25.108 502.511 24.85 501.743 24.334C500.987 23.818 500.393 23.08 499.961 22.12C499.541 21.148 499.331 20.008 499.331 18.7C499.331 17.392 499.541 16.258 499.961 15.298C500.393 14.326 500.987 13.582 501.743 13.066C502.511 12.55 503.381 12.292 504.353 12.292C505.325 12.292 506.189 12.55 506.945 13.066C507.713 13.582 508.313 14.326 508.745 15.298C509.177 16.258 509.393 17.392 509.393 18.7C509.393 20.008 509.177 21.148 508.745 22.12C508.313 23.08 507.713 23.818 506.945 24.334C506.189 24.85 505.325 25.108 504.353 25.108ZM504.353 23.92C505.085 23.92 505.727 23.716 506.279 23.308C506.843 22.9 507.281 22.306 507.593 21.526C507.905 20.746 508.061 19.804 508.061 18.7C508.061 17.596 507.905 16.654 507.593 15.874C507.281 15.094 506.843 14.5 506.279 14.092C505.727 13.684 505.085 13.48 504.353 13.48C503.621 13.48 502.973 13.684 502.409 14.092C501.857 14.5 501.425 15.094 501.113 15.874C500.801 16.654 500.645 17.596 500.645 18.7C500.645 19.804 500.801 20.746 501.113 21.526C501.425 22.306 501.857 22.9 502.409 23.308C502.973 23.716 503.621 23.92 504.353 23.92ZM516.271 25.108C515.299 25.108 514.429 24.85 513.661 24.334C512.905 23.818 512.311 23.08 511.879 22.12C511.459 21.148 511.249 20.008 511.249 18.7C511.249 17.392 511.459 16.258 511.879 15.298C512.311 14.326 512.905 13.582 513.661 13.066C514.429 12.55 515.299 12.292 516.271 12.292C517.243 12.292 518.107 12.55 518.863 13.066C519.631 13.582 520.231 14.326 520.663 15.298C521.095 16.258 521.311 17.392 521.311 18.7C521.311 20.008 521.095 21.148 520.663 22.12C520.231 23.08 519.631 23.818 518.863 24.334C518.107 24.85 517.243 25.108 516.271 25.108ZM516.271 23.92C517.003 23.92 517.645 23.716 518.197 23.308C518.761 22.9 519.199 22.306 519.511 21.526C519.823 20.746 519.979 19.804 519.979 18.7C519.979 17.596 519.823 16.654 519.511 15.874C519.199 15.094 518.761 14.5 518.197 14.092C517.645 13.684 517.003 13.48 516.271 13.48C515.539 13.48 514.891 13.684 514.327 14.092C513.775 14.5 513.343 15.094 513.031 15.874C512.719 16.654 512.562 17.596 512.562 18.7C512.562 19.804 512.719 20.746 513.031 21.526C513.343 22.306 513.775 22.9 514.327 23.308C514.891 23.716 515.539 23.92 516.271 23.92ZM523.451 19.564H528.167V20.68H523.451V19.564ZM535.541 17.458C536.369 17.458 537.101 17.614 537.737 17.926C538.385 18.238 538.889 18.682 539.249 19.258C539.609 19.822 539.789 20.482 539.789 21.238C539.789 22.006 539.603 22.684 539.231 23.272C538.859 23.86 538.343 24.316 537.683 24.64C537.035 24.952 536.303 25.108 535.487 25.108C533.819 25.108 532.541 24.562 531.653 23.47C530.765 22.366 530.321 20.812 530.321 18.808C530.321 17.404 530.561 16.216 531.041 15.244C531.521 14.272 532.193 13.54 533.057 13.048C533.921 12.544 534.929 12.292 536.081 12.292C537.329 12.292 538.325 12.52 539.069 12.976L538.547 14.02C537.947 13.624 537.131 13.426 536.099 13.426C534.707 13.426 533.615 13.87 532.823 14.758C532.031 15.634 531.635 16.912 531.635 18.592C531.635 18.892 531.653 19.234 531.689 19.618C532.001 18.934 532.499 18.406 533.183 18.034C533.867 17.65 534.653 17.458 535.541 17.458ZM535.433 24.01C536.345 24.01 537.083 23.764 537.647 23.272C538.223 22.768 538.511 22.102 538.511 21.274C538.511 20.446 538.223 19.786 537.647 19.294C537.083 18.802 536.315 18.556 535.343 18.556C534.707 18.556 534.143 18.676 533.651 18.916C533.171 19.156 532.793 19.486 532.517 19.906C532.241 20.326 532.103 20.794 532.103 21.31C532.103 21.79 532.229 22.234 532.481 22.642C532.745 23.05 533.129 23.38 533.633 23.632C534.137 23.884 534.737 24.01 535.433 24.01ZM549.894 23.848V25H541.056V24.082L546.294 18.952C546.954 18.304 547.398 17.746 547.626 17.278C547.866 16.798 547.986 16.318 547.986 15.838C547.986 15.094 547.728 14.518 547.212 14.11C546.708 13.69 545.982 13.48 545.034 13.48C543.558 13.48 542.412 13.948 541.596 14.884L540.678 14.092C541.17 13.516 541.794 13.072 542.55 12.76C543.318 12.448 544.182 12.292 545.142 12.292C546.426 12.292 547.44 12.598 548.184 13.21C548.94 13.81 549.318 14.638 549.318 15.694C549.318 16.342 549.174 16.966 548.886 17.566C548.598 18.166 548.052 18.856 547.248 19.636L542.964 23.848H549.894Z" fill="#121214"></path><g clip-path="url(#clip1_23_2929)"><path d="M361.53 34C360.788 34 360.052 33.8687 359.332 33.6072C356.161 32.4552 353.217 30.5789 350.819 28.1811C348.421 25.7833 346.545 22.8397 345.393 19.6684C345.023 18.6493 344.914 17.5972 345.069 16.5414C345.214 15.5525 345.597 14.5924 346.176 13.765C346.759 12.9339 347.535 12.2427 348.421 11.766C349.367 11.2578 350.398 11 351.488 11C351.827 11 352.12 11.2368 352.191 11.5681L353.319 16.8327C353.37 17.0711 353.297 17.3191 353.124 17.4915L351.197 19.4191C353.015 23.0346 355.966 25.9853 359.581 27.8037L361.509 25.8761C361.681 25.7037 361.929 25.6305 362.168 25.6815L367.432 26.8097C367.764 26.8807 368 27.1735 368 27.5124C368 28.602 367.743 29.6337 367.234 30.5789C366.758 31.4653 366.066 32.2416 365.235 32.8239C364.408 33.4036 363.448 33.7867 362.459 33.9318C362.149 33.9773 361.839 34 361.53 34ZM350.914 12.4689C349.476 12.6275 348.201 13.3809 347.354 14.5899C346.401 15.9494 346.179 17.6215 346.744 19.1776C348.959 25.2745 353.726 30.0414 359.823 32.2562C361.379 32.8214 363.051 32.5993 364.411 31.6467C365.62 30.7996 366.373 29.524 366.532 28.0868L362.249 27.1691L360.236 29.1822C360.021 29.3964 359.696 29.4533 359.422 29.3245C355.146 27.3157 351.685 23.8545 349.676 19.5786C349.547 19.3044 349.604 18.9789 349.818 18.7647L351.831 16.7516L350.914 12.4689Z" fill="white"></path></g><circle cx="356.5" cy="107.5" r="22.5" fill="#037E8C"></circle><path d="M407.726 97.4V110H406.412V98.552H398.438V110H397.124V97.4H407.726ZM411.672 100.532H412.95V104.726H418.908V100.532H420.186V110H418.908V105.824H412.95V110H411.672V100.532ZM427.791 104.564H432.507V105.68H427.791V104.564ZM451.021 97.4V110H449.707V98.552H441.733V110H440.419V97.4H451.021ZM461.626 101.666H458.044V110H456.766V101.666H453.184V100.532H461.626V101.666ZM463.564 102.422C463.3 102.422 463.072 102.326 462.88 102.134C462.7 101.942 462.61 101.708 462.61 101.432C462.61 101.156 462.7 100.928 462.88 100.748C463.072 100.556 463.3 100.46 463.564 100.46C463.828 100.46 464.056 100.556 464.248 100.748C464.44 100.928 464.536 101.156 464.536 101.432C464.536 101.708 464.44 101.942 464.248 102.134C464.056 102.326 463.828 102.422 463.564 102.422ZM463.564 110.09C463.3 110.09 463.072 109.994 462.88 109.802C462.7 109.61 462.61 109.376 462.61 109.1C462.61 108.824 462.7 108.596 462.88 108.416C463.072 108.224 463.3 108.128 463.564 108.128C463.828 108.128 464.056 108.224 464.248 108.416C464.44 108.596 464.536 108.824 464.536 109.1C464.536 109.376 464.44 109.61 464.248 109.802C464.056 109.994 463.828 110.09 463.564 110.09ZM475.042 97.292C476.71 97.292 477.988 97.844 478.876 98.948C479.764 100.04 480.208 101.588 480.208 103.592C480.208 104.996 479.968 106.184 479.488 107.156C479.008 108.128 478.336 108.866 477.472 109.37C476.608 109.862 475.6 110.108 474.448 110.108C473.2 110.108 472.204 109.88 471.46 109.424L471.982 108.38C472.582 108.776 473.398 108.974 474.43 108.974C475.822 108.974 476.914 108.536 477.706 107.66C478.498 106.772 478.894 105.488 478.894 103.808C478.894 103.496 478.876 103.154 478.84 102.782C478.528 103.466 478.03 104 477.346 104.384C476.662 104.756 475.876 104.942 474.988 104.942C474.16 104.942 473.422 104.786 472.774 104.474C472.138 104.162 471.64 103.724 471.28 103.16C470.92 102.584 470.74 101.918 470.74 101.162C470.74 100.394 470.926 99.716 471.298 99.128C471.67 98.54 472.18 98.09 472.828 97.778C473.488 97.454 474.226 97.292 475.042 97.292ZM475.186 103.844C475.822 103.844 476.38 103.724 476.86 103.484C477.352 103.244 477.736 102.914 478.012 102.494C478.288 102.074 478.426 101.606 478.426 101.09C478.426 100.61 478.294 100.166 478.03 99.758C477.778 99.35 477.4 99.02 476.896 98.768C476.392 98.516 475.792 98.39 475.096 98.39C474.184 98.39 473.44 98.642 472.864 99.146C472.3 99.638 472.018 100.298 472.018 101.126C472.018 101.954 472.3 102.614 472.864 103.106C473.44 103.598 474.214 103.844 475.186 103.844ZM483.058 102.422C482.794 102.422 482.566 102.326 482.374 102.134C482.194 101.942 482.104 101.708 482.104 101.432C482.104 101.156 482.194 100.928 482.374 100.748C482.566 100.556 482.794 100.46 483.058 100.46C483.322 100.46 483.55 100.556 483.742 100.748C483.934 100.928 484.03 101.156 484.03 101.432C484.03 101.708 483.934 101.942 483.742 102.134C483.55 102.326 483.322 102.422 483.058 102.422ZM483.058 110.09C482.794 110.09 482.566 109.994 482.374 109.802C482.194 109.61 482.104 109.376 482.104 109.1C482.104 108.824 482.194 108.596 482.374 108.416C482.566 108.224 482.794 108.128 483.058 108.128C483.322 108.128 483.55 108.224 483.742 108.416C483.934 108.596 484.03 108.824 484.03 109.1C484.03 109.376 483.934 109.61 483.742 109.802C483.55 109.994 483.322 110.09 483.058 110.09ZM490.923 110.108C489.951 110.108 489.081 109.85 488.313 109.334C487.557 108.818 486.963 108.08 486.531 107.12C486.111 106.148 485.901 105.008 485.901 103.7C485.901 102.392 486.111 101.258 486.531 100.298C486.963 99.326 487.557 98.582 488.313 98.066C489.081 97.55 489.951 97.292 490.923 97.292C491.895 97.292 492.759 97.55 493.515 98.066C494.283 98.582 494.883 99.326 495.315 100.298C495.747 101.258 495.963 102.392 495.963 103.7C495.963 105.008 495.747 106.148 495.315 107.12C494.883 108.08 494.283 108.818 493.515 109.334C492.759 109.85 491.895 110.108 490.923 110.108ZM490.923 108.92C491.655 108.92 492.297 108.716 492.849 108.308C493.413 107.9 493.851 107.306 494.163 106.526C494.475 105.746 494.631 104.804 494.631 103.7C494.631 102.596 494.475 101.654 494.163 100.874C493.851 100.094 493.413 99.5 492.849 99.092C492.297 98.684 491.655 98.48 490.923 98.48C490.191 98.48 489.543 98.684 488.979 99.092C488.427 99.5 487.995 100.094 487.683 100.874C487.371 101.654 487.215 102.596 487.215 103.7C487.215 104.804 487.371 105.746 487.683 106.526C487.995 107.306 488.427 107.9 488.979 108.308C489.543 108.716 490.191 108.92 490.923 108.92ZM502.841 110.108C501.869 110.108 500.999 109.85 500.231 109.334C499.475 108.818 498.881 108.08 498.449 107.12C498.029 106.148 497.819 105.008 497.819 103.7C497.819 102.392 498.029 101.258 498.449 100.298C498.881 99.326 499.475 98.582 500.231 98.066C500.999 97.55 501.869 97.292 502.841 97.292C503.813 97.292 504.677 97.55 505.433 98.066C506.201 98.582 506.801 99.326 507.233 100.298C507.665 101.258 507.881 102.392 507.881 103.7C507.881 105.008 507.665 106.148 507.233 107.12C506.801 108.08 506.201 108.818 505.433 109.334C504.677 109.85 503.813 110.108 502.841 110.108ZM502.841 108.92C503.573 108.92 504.215 108.716 504.767 108.308C505.331 107.9 505.769 107.306 506.081 106.526C506.393 105.746 506.549 104.804 506.549 103.7C506.549 102.596 506.393 101.654 506.081 100.874C505.769 100.094 505.331 99.5 504.767 99.092C504.215 98.684 503.573 98.48 502.841 98.48C502.109 98.48 501.461 98.684 500.897 99.092C500.345 99.5 499.913 100.094 499.601 100.874C499.289 101.654 499.133 102.596 499.133 103.7C499.133 104.804 499.289 105.746 499.601 106.526C499.913 107.306 500.345 107.9 500.897 108.308C501.461 108.716 502.109 108.92 502.841 108.92ZM514.592 104.564H519.308V105.68H514.592V104.564ZM529.524 97.4V110H528.228V98.552H525.258V97.4H529.524ZM539.754 103.394C540.546 103.658 541.152 104.054 541.572 104.582C542.004 105.11 542.22 105.746 542.22 106.49C542.22 107.222 542.022 107.864 541.626 108.416C541.23 108.956 540.66 109.376 539.916 109.676C539.184 109.964 538.32 110.108 537.324 110.108C535.812 110.108 534.624 109.784 533.76 109.136C532.896 108.488 532.464 107.606 532.464 106.49C532.464 105.734 532.668 105.098 533.076 104.582C533.496 104.054 534.102 103.658 534.894 103.394C534.246 103.142 533.754 102.782 533.418 102.314C533.082 101.834 532.914 101.27 532.914 100.622C532.914 99.602 533.31 98.792 534.102 98.192C534.906 97.592 535.98 97.292 537.324 97.292C538.212 97.292 538.986 97.43 539.646 97.706C540.318 97.97 540.84 98.354 541.212 98.858C541.584 99.362 541.77 99.95 541.77 100.622C541.77 101.27 541.596 101.834 541.248 102.314C540.9 102.782 540.402 103.142 539.754 103.394ZM534.21 100.658C534.21 101.354 534.486 101.906 535.038 102.314C535.59 102.722 536.352 102.926 537.324 102.926C538.296 102.926 539.058 102.722 539.61 102.314C540.174 101.906 540.456 101.36 540.456 100.676C540.456 99.968 540.168 99.41 539.592 99.002C539.028 98.594 538.272 98.39 537.324 98.39C536.364 98.39 535.602 98.594 535.038 99.002C534.486 99.41 534.21 99.962 534.21 100.658ZM537.324 109.01C538.44 109.01 539.31 108.782 539.934 108.326C540.57 107.87 540.888 107.252 540.888 106.472C540.888 105.692 540.57 105.08 539.934 104.636C539.31 104.18 538.44 103.952 537.324 103.952C536.22 103.952 535.35 104.18 534.714 104.636C534.09 105.08 533.778 105.692 533.778 106.472C533.778 107.264 534.09 107.888 534.714 108.344C535.338 108.788 536.208 109.01 537.324 109.01ZM544.986 102.422C544.722 102.422 544.494 102.326 544.302 102.134C544.122 101.942 544.032 101.708 544.032 101.432C544.032 101.156 544.122 100.928 544.302 100.748C544.494 100.556 544.722 100.46 544.986 100.46C545.25 100.46 545.478 100.556 545.67 100.748C545.862 100.928 545.958 101.156 545.958 101.432C545.958 101.708 545.862 101.942 545.67 102.134C545.478 102.326 545.25 102.422 544.986 102.422ZM544.986 110.09C544.722 110.09 544.494 109.994 544.302 109.802C544.122 109.61 544.032 109.376 544.032 109.1C544.032 108.824 544.122 108.596 544.302 108.416C544.494 108.224 544.722 108.128 544.986 108.128C545.25 108.128 545.478 108.224 545.67 108.416C545.862 108.596 545.958 108.824 545.958 109.1C545.958 109.376 545.862 109.61 545.67 109.802C545.478 109.994 545.25 110.09 544.986 110.09ZM552.851 110.108C551.879 110.108 551.009 109.85 550.241 109.334C549.485 108.818 548.891 108.08 548.459 107.12C548.039 106.148 547.829 105.008 547.829 103.7C547.829 102.392 548.039 101.258 548.459 100.298C548.891 99.326 549.485 98.582 550.241 98.066C551.009 97.55 551.879 97.292 552.851 97.292C553.823 97.292 554.687 97.55 555.443 98.066C556.211 98.582 556.811 99.326 557.243 100.298C557.675 101.258 557.891 102.392 557.891 103.7C557.891 105.008 557.675 106.148 557.243 107.12C556.811 108.08 556.211 108.818 555.443 109.334C554.687 109.85 553.823 110.108 552.851 110.108ZM552.851 108.92C553.583 108.92 554.225 108.716 554.777 108.308C555.341 107.9 555.779 107.306 556.091 106.526C556.403 105.746 556.559 104.804 556.559 103.7C556.559 102.596 556.403 101.654 556.091 100.874C555.779 100.094 555.341 99.5 554.777 99.092C554.225 98.684 553.583 98.48 552.851 98.48C552.119 98.48 551.471 98.684 550.907 99.092C550.355 99.5 549.923 100.094 549.611 100.874C549.299 101.654 549.143 102.596 549.143 103.7C549.143 104.804 549.299 105.746 549.611 106.526C549.923 107.306 550.355 107.9 550.907 108.308C551.471 108.716 552.119 108.92 552.851 108.92ZM564.769 110.108C563.797 110.108 562.927 109.85 562.159 109.334C561.403 108.818 560.809 108.08 560.377 107.12C559.957 106.148 559.747 105.008 559.747 103.7C559.747 102.392 559.957 101.258 560.377 100.298C560.809 99.326 561.403 98.582 562.159 98.066C562.927 97.55 563.797 97.292 564.769 97.292C565.741 97.292 566.605 97.55 567.361 98.066C568.129 98.582 568.729 99.326 569.161 100.298C569.593 101.258 569.809 102.392 569.809 103.7C569.809 105.008 569.593 106.148 569.161 107.12C568.729 108.08 568.129 108.818 567.361 109.334C566.605 109.85 565.741 110.108 564.769 110.108ZM564.769 108.92C565.501 108.92 566.143 108.716 566.695 108.308C567.259 107.9 567.697 107.306 568.009 106.526C568.321 105.746 568.477 104.804 568.477 103.7C568.477 102.596 568.321 101.654 568.009 100.874C567.697 100.094 567.259 99.5 566.695 99.092C566.143 98.684 565.501 98.48 564.769 98.48C564.037 98.48 563.389 98.684 562.825 99.092C562.273 99.5 561.841 100.094 561.529 100.874C561.217 101.654 561.061 102.596 561.061 103.7C561.061 104.804 561.217 105.746 561.529 106.526C561.841 107.306 562.273 107.9 562.825 108.308C563.389 108.716 564.037 108.92 564.769 108.92ZM402.632 137.108C401.384 137.108 400.256 136.832 399.248 136.28C398.252 135.728 397.466 134.966 396.89 133.994C396.326 133.01 396.044 131.912 396.044 130.7C396.044 129.488 396.326 128.396 396.89 127.424C397.466 126.44 398.258 125.672 399.266 125.12C400.274 124.568 401.402 124.292 402.65 124.292C403.586 124.292 404.45 124.448 405.242 124.76C406.034 125.072 406.706 125.528 407.258 126.128L406.412 126.974C405.428 125.978 404.186 125.48 402.686 125.48C401.69 125.48 400.784 125.708 399.968 126.164C399.152 126.62 398.51 127.244 398.042 128.036C397.586 128.828 397.358 129.716 397.358 130.7C397.358 131.684 397.586 132.572 398.042 133.364C398.51 134.156 399.152 134.78 399.968 135.236C400.784 135.692 401.69 135.92 402.686 135.92C404.198 135.92 405.44 135.416 406.412 134.408L407.258 135.254C406.706 135.854 406.028 136.316 405.224 136.64C404.432 136.952 403.568 137.108 402.632 137.108ZM414.029 127.766C414.905 127.766 415.685 127.964 416.369 128.36C417.065 128.744 417.605 129.29 417.989 129.998C418.373 130.694 418.565 131.492 418.565 132.392C418.565 133.316 418.361 134.138 417.953 134.858C417.557 135.566 416.999 136.118 416.279 136.514C415.559 136.91 414.731 137.108 413.795 137.108C412.223 137.108 411.005 136.556 410.141 135.452C409.277 134.348 408.845 132.824 408.845 130.88C408.845 128.852 409.229 127.298 409.997 126.218C410.777 125.138 411.989 124.406 413.633 124.022L417.881 123.05L418.097 124.22L414.101 125.138C412.745 125.438 411.749 125.972 411.113 126.74C410.477 127.496 410.129 128.618 410.069 130.106C410.453 129.374 410.987 128.804 411.671 128.396C412.355 127.976 413.141 127.766 414.029 127.766ZM413.831 136.046C414.491 136.046 415.079 135.896 415.595 135.596C416.123 135.284 416.531 134.852 416.819 134.3C417.119 133.748 417.269 133.124 417.269 132.428C417.269 131.732 417.125 131.12 416.837 130.592C416.549 130.064 416.141 129.656 415.613 129.368C415.097 129.068 414.503 128.918 413.831 128.918C413.159 128.918 412.559 129.068 412.031 129.368C411.515 129.656 411.107 130.064 410.807 130.592C410.519 131.12 410.375 131.732 410.375 132.428C410.375 133.124 410.519 133.748 410.807 134.3C411.107 134.852 411.521 135.284 412.049 135.596C412.577 135.896 413.171 136.046 413.831 136.046ZM421.394 129.422C421.13 129.422 420.902 129.326 420.71 129.134C420.53 128.942 420.44 128.708 420.44 128.432C420.44 128.156 420.53 127.928 420.71 127.748C420.902 127.556 421.13 127.46 421.394 127.46C421.658 127.46 421.886 127.556 422.078 127.748C422.27 127.928 422.366 128.156 422.366 128.432C422.366 128.708 422.27 128.942 422.078 129.134C421.886 129.326 421.658 129.422 421.394 129.422ZM421.394 137.09C421.13 137.09 420.902 136.994 420.71 136.802C420.53 136.61 420.44 136.376 420.44 136.1C420.44 135.824 420.53 135.596 420.71 135.416C420.902 135.224 421.13 135.128 421.394 135.128C421.658 135.128 421.886 135.224 422.078 135.416C422.27 135.596 422.366 135.824 422.366 136.1C422.366 136.376 422.27 136.61 422.078 136.802C421.886 136.994 421.658 137.09 421.394 137.09ZM432.872 124.292C434.54 124.292 435.818 124.844 436.706 125.948C437.594 127.04 438.038 128.588 438.038 130.592C438.038 131.996 437.798 133.184 437.318 134.156C436.838 135.128 436.166 135.866 435.302 136.37C434.438 136.862 433.43 137.108 432.278 137.108C431.03 137.108 430.034 136.88 429.29 136.424L429.812 135.38C430.412 135.776 431.228 135.974 432.26 135.974C433.652 135.974 434.744 135.536 435.536 134.66C436.328 133.772 436.724 132.488 436.724 130.808C436.724 130.496 436.706 130.154 436.67 129.782C436.358 130.466 435.86 131 435.176 131.384C434.492 131.756 433.706 131.942 432.818 131.942C431.99 131.942 431.252 131.786 430.604 131.474C429.968 131.162 429.47 130.724 429.11 130.16C428.75 129.584 428.57 128.918 428.57 128.162C428.57 127.394 428.756 126.716 429.128 126.128C429.5 125.54 430.01 125.09 430.658 124.778C431.318 124.454 432.056 124.292 432.872 124.292ZM433.016 130.844C433.652 130.844 434.21 130.724 434.69 130.484C435.182 130.244 435.566 129.914 435.842 129.494C436.118 129.074 436.256 128.606 436.256 128.09C436.256 127.61 436.124 127.166 435.86 126.758C435.608 126.35 435.23 126.02 434.726 125.768C434.222 125.516 433.622 125.39 432.926 125.39C432.014 125.39 431.27 125.642 430.694 126.146C430.13 126.638 429.848 127.298 429.848 128.126C429.848 128.954 430.13 129.614 430.694 130.106C431.27 130.598 432.044 130.844 433.016 130.844ZM440.888 129.422C440.624 129.422 440.396 129.326 440.204 129.134C440.024 128.942 439.934 128.708 439.934 128.432C439.934 128.156 440.024 127.928 440.204 127.748C440.396 127.556 440.624 127.46 440.888 127.46C441.152 127.46 441.38 127.556 441.572 127.748C441.764 127.928 441.86 128.156 441.86 128.432C441.86 128.708 441.764 128.942 441.572 129.134C441.38 129.326 441.152 129.422 440.888 129.422ZM440.888 137.09C440.624 137.09 440.396 136.994 440.204 136.802C440.024 136.61 439.934 136.376 439.934 136.1C439.934 135.824 440.024 135.596 440.204 135.416C440.396 135.224 440.624 135.128 440.888 135.128C441.152 135.128 441.38 135.224 441.572 135.416C441.764 135.596 441.86 135.824 441.86 136.1C441.86 136.376 441.764 136.61 441.572 136.802C441.38 136.994 441.152 137.09 440.888 137.09ZM448.753 137.108C447.781 137.108 446.911 136.85 446.143 136.334C445.387 135.818 444.793 135.08 444.361 134.12C443.941 133.148 443.731 132.008 443.731 130.7C443.731 129.392 443.941 128.258 444.361 127.298C444.793 126.326 445.387 125.582 446.143 125.066C446.911 124.55 447.781 124.292 448.753 124.292C449.725 124.292 450.589 124.55 451.345 125.066C452.113 125.582 452.713 126.326 453.145 127.298C453.577 128.258 453.793 129.392 453.793 130.7C453.793 132.008 453.577 133.148 453.145 134.12C452.713 135.08 452.113 135.818 451.345 136.334C450.589 136.85 449.725 137.108 448.753 137.108ZM448.753 135.92C449.485 135.92 450.127 135.716 450.679 135.308C451.243 134.9 451.681 134.306 451.993 133.526C452.305 132.746 452.461 131.804 452.461 130.7C452.461 129.596 452.305 128.654 451.993 127.874C451.681 127.094 451.243 126.5 450.679 126.092C450.127 125.684 449.485 125.48 448.753 125.48C448.021 125.48 447.373 125.684 446.809 126.092C446.257 126.5 445.825 127.094 445.513 127.874C445.201 128.654 445.045 129.596 445.045 130.7C445.045 131.804 445.201 132.746 445.513 133.526C445.825 134.306 446.257 134.9 446.809 135.308C447.373 135.716 448.021 135.92 448.753 135.92ZM460.671 137.108C459.699 137.108 458.829 136.85 458.061 136.334C457.305 135.818 456.711 135.08 456.279 134.12C455.859 133.148 455.649 132.008 455.649 130.7C455.649 129.392 455.859 128.258 456.279 127.298C456.711 126.326 457.305 125.582 458.061 125.066C458.829 124.55 459.699 124.292 460.671 124.292C461.643 124.292 462.507 124.55 463.263 125.066C464.031 125.582 464.631 126.326 465.063 127.298C465.495 128.258 465.711 129.392 465.711 130.7C465.711 132.008 465.495 133.148 465.063 134.12C464.631 135.08 464.031 135.818 463.263 136.334C462.507 136.85 461.643 137.108 460.671 137.108ZM460.671 135.92C461.403 135.92 462.045 135.716 462.597 135.308C463.161 134.9 463.599 134.306 463.911 133.526C464.223 132.746 464.379 131.804 464.379 130.7C464.379 129.596 464.223 128.654 463.911 127.874C463.599 127.094 463.161 126.5 462.597 126.092C462.045 125.684 461.403 125.48 460.671 125.48C459.939 125.48 459.291 125.684 458.727 126.092C458.175 126.5 457.743 127.094 457.431 127.874C457.119 128.654 456.963 129.596 456.963 130.7C456.963 131.804 457.119 132.746 457.431 133.526C457.743 134.306 458.175 134.9 458.727 135.308C459.291 135.716 459.939 135.92 460.671 135.92ZM472.422 131.564H477.138V132.68H472.422V131.564ZM487.354 124.4V137H486.058V125.552H483.088V124.4H487.354ZM499.258 124.4V125.318L493.984 137H492.58L497.764 125.552H491.284V127.91H490.006V124.4H499.258ZM501.586 129.422C501.322 129.422 501.094 129.326 500.902 129.134C500.722 128.942 500.632 128.708 500.632 128.432C500.632 128.156 500.722 127.928 500.902 127.748C501.094 127.556 501.322 127.46 501.586 127.46C501.85 127.46 502.078 127.556 502.27 127.748C502.462 127.928 502.558 128.156 502.558 128.432C502.558 128.708 502.462 128.942 502.27 129.134C502.078 129.326 501.85 129.422 501.586 129.422ZM501.586 137.09C501.322 137.09 501.094 136.994 500.902 136.802C500.722 136.61 500.632 136.376 500.632 136.1C500.632 135.824 500.722 135.596 500.902 135.416C501.094 135.224 501.322 135.128 501.586 135.128C501.85 135.128 502.078 135.224 502.27 135.416C502.462 135.596 502.558 135.824 502.558 136.1C502.558 136.376 502.462 136.61 502.27 136.802C502.078 136.994 501.85 137.09 501.586 137.09ZM509.45 137.108C508.478 137.108 507.608 136.85 506.84 136.334C506.084 135.818 505.49 135.08 505.058 134.12C504.638 133.148 504.428 132.008 504.428 130.7C504.428 129.392 504.638 128.258 505.058 127.298C505.49 126.326 506.084 125.582 506.84 125.066C507.608 124.55 508.478 124.292 509.45 124.292C510.422 124.292 511.286 124.55 512.042 125.066C512.81 125.582 513.41 126.326 513.842 127.298C514.274 128.258 514.49 129.392 514.49 130.7C514.49 132.008 514.274 133.148 513.842 134.12C513.41 135.08 512.81 135.818 512.042 136.334C511.286 136.85 510.422 137.108 509.45 137.108ZM509.45 135.92C510.182 135.92 510.824 135.716 511.376 135.308C511.94 134.9 512.378 134.306 512.69 133.526C513.002 132.746 513.158 131.804 513.158 130.7C513.158 129.596 513.002 128.654 512.69 127.874C512.378 127.094 511.94 126.5 511.376 126.092C510.824 125.684 510.182 125.48 509.45 125.48C508.718 125.48 508.07 125.684 507.506 126.092C506.954 126.5 506.522 127.094 506.21 127.874C505.898 128.654 505.742 129.596 505.742 130.7C505.742 131.804 505.898 132.746 506.21 133.526C506.522 134.306 506.954 134.9 507.506 135.308C508.07 135.716 508.718 135.92 509.45 135.92ZM521.368 137.108C520.396 137.108 519.526 136.85 518.758 136.334C518.002 135.818 517.408 135.08 516.976 134.12C516.556 133.148 516.346 132.008 516.346 130.7C516.346 129.392 516.556 128.258 516.976 127.298C517.408 126.326 518.002 125.582 518.758 125.066C519.526 124.55 520.396 124.292 521.368 124.292C522.34 124.292 523.204 124.55 523.96 125.066C524.728 125.582 525.328 126.326 525.76 127.298C526.192 128.258 526.408 129.392 526.408 130.7C526.408 132.008 526.192 133.148 525.76 134.12C525.328 135.08 524.728 135.818 523.96 136.334C523.204 136.85 522.34 137.108 521.368 137.108ZM521.368 135.92C522.1 135.92 522.742 135.716 523.294 135.308C523.858 134.9 524.296 134.306 524.608 133.526C524.92 132.746 525.076 131.804 525.076 130.7C525.076 129.596 524.92 128.654 524.608 127.874C524.296 127.094 523.858 126.5 523.294 126.092C522.742 125.684 522.1 125.48 521.368 125.48C520.636 125.48 519.988 125.684 519.424 126.092C518.872 126.5 518.44 127.094 518.128 127.874C517.816 128.654 517.66 129.596 517.66 130.7C517.66 131.804 517.816 132.746 518.128 133.526C518.44 134.306 518.872 134.9 519.424 135.308C519.988 135.716 520.636 135.92 521.368 135.92ZM404.594 157.502C405.47 157.682 406.136 158.036 406.592 158.564C407.048 159.08 407.276 159.758 407.276 160.598C407.276 161.69 406.886 162.53 406.106 163.118C405.338 163.706 404.204 164 402.704 164H397.124V151.4H402.362C403.706 151.4 404.756 151.676 405.512 152.228C406.268 152.78 406.646 153.578 406.646 154.622C406.646 155.33 406.466 155.93 406.106 156.422C405.746 156.902 405.242 157.262 404.594 157.502ZM398.438 157.106H402.29C403.262 157.106 404.006 156.908 404.522 156.512C405.05 156.116 405.314 155.54 405.314 154.784C405.314 154.028 405.05 153.452 404.522 153.056C404.006 152.66 403.262 152.462 402.29 152.462H398.438V157.106ZM402.704 162.938C404.876 162.938 405.962 162.128 405.962 160.508C405.962 158.924 404.876 158.132 402.704 158.132H398.438V162.938H402.704ZM414.26 164.09C413.324 164.09 412.484 163.886 411.74 163.478C411.008 163.07 410.432 162.5 410.012 161.768C409.592 161.024 409.382 160.19 409.382 159.266C409.382 158.342 409.592 157.514 410.012 156.782C410.432 156.05 411.008 155.48 411.74 155.072C412.484 154.664 413.324 154.46 414.26 154.46C415.076 154.46 415.802 154.622 416.438 154.946C417.086 155.258 417.596 155.72 417.968 156.332L417.014 156.98C416.702 156.512 416.306 156.164 415.826 155.936C415.346 155.696 414.824 155.576 414.26 155.576C413.576 155.576 412.958 155.732 412.406 156.044C411.866 156.344 411.44 156.776 411.128 157.34C410.828 157.904 410.678 158.546 410.678 159.266C410.678 159.998 410.828 160.646 411.128 161.21C411.44 161.762 411.866 162.194 412.406 162.506C412.958 162.806 413.576 162.956 414.26 162.956C414.824 162.956 415.346 162.842 415.826 162.614C416.306 162.386 416.702 162.038 417.014 161.57L417.968 162.218C417.596 162.83 417.086 163.298 416.438 163.622C415.79 163.934 415.064 164.09 414.26 164.09ZM424.416 158.564H429.132V159.68H424.416V158.564ZM442.768 159.104C444.052 159.404 444.694 160.178 444.694 161.426C444.694 162.254 444.388 162.89 443.776 163.334C443.164 163.778 442.252 164 441.04 164H436.738V154.532H440.914C441.994 154.532 442.84 154.742 443.452 155.162C444.064 155.582 444.37 156.182 444.37 156.962C444.37 157.478 444.226 157.922 443.938 158.294C443.662 158.654 443.272 158.924 442.768 159.104ZM437.98 158.744H440.824C441.556 158.744 442.114 158.606 442.498 158.33C442.894 158.054 443.092 157.652 443.092 157.124C443.092 156.596 442.894 156.2 442.498 155.936C442.114 155.672 441.556 155.54 440.824 155.54H437.98V158.744ZM440.986 162.992C441.802 162.992 442.414 162.86 442.822 162.596C443.23 162.332 443.434 161.918 443.434 161.354C443.434 160.79 443.248 160.376 442.876 160.112C442.504 159.836 441.916 159.698 441.112 159.698H437.98V162.992H440.986ZM451.667 157.88C452.855 157.892 453.761 158.156 454.385 158.672C455.009 159.188 455.321 159.932 455.321 160.904C455.321 161.912 454.985 162.686 454.313 163.226C453.641 163.766 452.681 164.03 451.433 164.018L447.689 164V154.532H448.967V157.844L451.667 157.88ZM456.905 154.532H458.183V164H456.905V154.532ZM451.361 163.046C452.237 163.058 452.897 162.884 453.341 162.524C453.797 162.152 454.025 161.612 454.025 160.904C454.025 160.208 453.803 159.692 453.359 159.356C452.915 159.02 452.249 158.846 451.361 158.834L448.967 158.798V163.01L451.361 163.046ZM467.744 164L464.738 160.04L461.714 164H460.274L464.018 159.14L460.454 154.532H461.894L464.738 158.24L467.582 154.532H468.986L465.422 159.14L469.202 164H467.744ZM474.869 164.09C473.957 164.09 473.135 163.886 472.403 163.478C471.671 163.058 471.095 162.482 470.675 161.75C470.255 161.018 470.045 160.19 470.045 159.266C470.045 158.342 470.255 157.514 470.675 156.782C471.095 156.05 471.671 155.48 472.403 155.072C473.135 154.664 473.957 154.46 474.869 154.46C475.781 154.46 476.603 154.664 477.335 155.072C478.067 155.48 478.637 156.05 479.045 156.782C479.465 157.514 479.675 158.342 479.675 159.266C479.675 160.19 479.465 161.018 479.045 161.75C478.637 162.482 478.067 163.058 477.335 163.478C476.603 163.886 475.781 164.09 474.869 164.09ZM474.869 162.956C475.541 162.956 476.141 162.806 476.669 162.506C477.209 162.194 477.629 161.756 477.929 161.192C478.229 160.628 478.379 159.986 478.379 159.266C478.379 158.546 478.229 157.904 477.929 157.34C477.629 156.776 477.209 156.344 476.669 156.044C476.141 155.732 475.541 155.576 474.869 155.576C474.197 155.576 473.591 155.732 473.051 156.044C472.523 156.344 472.103 156.776 471.791 157.34C471.491 157.904 471.341 158.546 471.341 159.266C471.341 159.986 471.491 160.628 471.791 161.192C472.103 161.756 472.523 162.194 473.051 162.506C473.591 162.806 474.197 162.956 474.869 162.956ZM491.587 162.884V166.286H490.381V164H481.903V166.286H480.697V162.884H481.237C481.873 162.848 482.305 162.38 482.533 161.48C482.761 160.58 482.917 159.32 483.001 157.7L483.127 154.532H490.111V162.884H491.587ZM484.171 157.772C484.111 159.116 483.997 160.226 483.829 161.102C483.661 161.966 483.361 162.56 482.929 162.884H488.833V155.666H484.279L484.171 157.772ZM494.078 154.532H495.356V158.726H501.314V154.532H502.592V164H501.314V159.824H495.356V164H494.078V154.532ZM510.13 164.09C509.218 164.09 508.396 163.886 507.664 163.478C506.932 163.058 506.356 162.482 505.936 161.75C505.516 161.018 505.306 160.19 505.306 159.266C505.306 158.342 505.516 157.514 505.936 156.782C506.356 156.05 506.932 155.48 507.664 155.072C508.396 154.664 509.218 154.46 510.13 154.46C511.042 154.46 511.864 154.664 512.596 155.072C513.328 155.48 513.898 156.05 514.306 156.782C514.726 157.514 514.936 158.342 514.936 159.266C514.936 160.19 514.726 161.018 514.306 161.75C513.898 162.482 513.328 163.058 512.596 163.478C511.864 163.886 511.042 164.09 510.13 164.09ZM510.13 162.956C510.802 162.956 511.402 162.806 511.93 162.506C512.47 162.194 512.89 161.756 513.19 161.192C513.49 160.628 513.64 159.986 513.64 159.266C513.64 158.546 513.49 157.904 513.19 157.34C512.89 156.776 512.47 156.344 511.93 156.044C511.402 155.732 510.802 155.576 510.13 155.576C509.458 155.576 508.852 155.732 508.312 156.044C507.784 156.344 507.364 156.776 507.052 157.34C506.752 157.904 506.602 158.546 506.602 159.266C506.602 159.986 506.752 160.628 507.052 161.192C507.364 161.756 507.784 162.194 508.312 162.506C508.852 162.806 509.458 162.956 510.13 162.956ZM517.668 154.532H518.946V162.056L525.264 154.532H526.398V164H525.12V156.476L518.82 164H517.668V154.532ZM521.97 153.164C521.154 153.164 520.506 152.96 520.026 152.552C519.546 152.144 519.3 151.568 519.288 150.824H520.206C520.218 151.292 520.386 151.67 520.71 151.958C521.034 152.234 521.454 152.372 521.97 152.372C522.486 152.372 522.906 152.234 523.23 151.958C523.566 151.67 523.74 151.292 523.752 150.824H524.67C524.658 151.568 524.406 152.144 523.914 152.552C523.434 152.96 522.786 153.164 521.97 153.164Z" fill="#121214"></path><path d="M357 119.583C363.904 119.583 369.5 114.173 369.5 107.5C369.5 100.826 363.904 95.4165 357 95.4165C350.096 95.4165 344.5 100.826 344.5 107.5C344.5 114.173 350.096 119.583 357 119.583Z" stroke="white" stroke-width="2" stroke-linecap="round" stroke-linejoin="round"></path><path d="M360.75 112.333L357.733 109.416C357.264 108.963 357 108.349 357 107.708V100.25" stroke="white" stroke-width="2" stroke-linecap="round" stroke-linejoin="round"></path><g clip-path="url(#clip2_23_2929)"><path d="M82.529 273.314C85.8798 273.314 88.5961 270.682 88.5961 267.435C88.5961 264.188 85.8798 261.556 82.529 261.556C79.1782 261.556 76.4618 264.188 76.4618 267.435C76.4618 270.682 79.1782 273.314 82.529 273.314Z" fill="#121214"></path><path d="M91.9197 267.763C91.9197 272.788 87.7153 276.861 82.529 276.861C77.3426 276.861 73.1382 272.788 73.1382 267.763C73.1382 266.862 73.2741 265.993 73.5257 265.171H70.7507V277.933C70.7507 278.594 71.291 279.134 71.9516 279.134H92.9901C93.6512 279.134 94.1918 278.594 94.1918 277.933V265.171H91.5322C91.7834 265.993 91.9197 266.862 91.9197 267.763Z" fill="#121214"></path><path d="M89.4027 261.727H92.8174C93.5656 261.727 94.1772 261.115 94.1772 260.367V257.111C94.1772 256.363 93.5656 255.751 92.8174 255.751H89.4027C88.654 255.751 88.0425 256.363 88.0425 257.111V260.367C88.0421 261.115 88.654 261.727 89.4027 261.727Z" fill="#121214"></path><path d="M82.5 247C71.1781 247 62 256.178 62 267.5C62 278.822 71.1781 288 82.5 288C93.8219 288 103 278.822 103 267.5C103 256.178 93.8219 247 82.5 247ZM93.7283 282.606H71.2721C69.1384 282.606 67.394 281.027 67.394 278.729V256.272C67.394 253.973 69.1384 252.394 71.2721 252.394H93.7283C95.8616 252.394 97.6065 253.973 97.6065 256.272V278.729C97.6065 281.027 95.8612 282.606 93.7283 282.606Z" fill="#121214"></path></g><circle cx="20.5" cy="267.5" r="20.5" fill="#121214"></circle><path d="M27.9479 269.828C27.5797 269.639 25.7453 268.741 25.4041 268.619C25.0629 268.491 24.8129 268.43 24.5662 268.808C24.3163 269.183 23.6068 270.018 23.3838 270.271C23.1676 270.521 22.948 270.551 22.5798 270.366C20.3907 269.271 18.9549 268.413 17.5124 265.937C17.1306 265.278 17.8941 265.325 18.6069 263.903C18.7286 263.653 18.6677 263.44 18.5732 263.251C18.4786 263.062 17.7353 261.231 17.4245 260.484C17.1239 259.758 16.8131 259.859 16.5867 259.846C16.3705 259.832 16.1239 259.832 15.8739 259.832C15.6239 259.832 15.2219 259.927 14.8807 260.295C14.5395 260.67 13.5767 261.572 13.5767 263.403C13.5767 265.234 14.9111 267.008 15.0935 267.258C15.2827 267.508 17.7184 271.264 21.4582 272.882C23.823 273.903 24.7487 273.99 25.9311 273.815C26.6507 273.707 28.1337 272.916 28.4411 272.041C28.7486 271.17 28.7486 270.423 28.6574 270.268C28.5661 270.102 28.3162 270.007 27.9479 269.828Z" fill="white"></path><path d="M35.0998 260.995C34.3363 259.181 33.2417 257.552 31.8465 256.154C30.4512 254.758 28.8229 253.66 27.0054 252.9C25.1473 252.12 23.1744 251.725 21.1406 251.725H21.0731C19.0258 251.735 17.0428 252.14 15.1779 252.937C13.3773 253.708 11.7625 254.802 10.3808 256.197C8.99904 257.593 7.91461 259.214 7.16462 261.022C6.38762 262.893 5.99573 264.883 6.00587 266.93C6.016 269.275 6.5768 271.603 7.62745 273.684V278.819C7.62745 279.677 8.32338 280.373 9.18147 280.373H14.3199C16.4009 281.423 18.7285 281.984 21.0731 281.994H21.144C23.1676 281.994 25.1304 281.602 26.9783 280.835C28.7857 280.082 30.4107 279.001 31.8025 277.619C33.1978 276.238 34.2957 274.623 35.0626 272.822C35.8599 270.957 36.2653 268.974 36.2754 266.927C36.2855 264.87 35.8869 262.873 35.0998 260.995ZM29.9951 275.792C27.627 278.136 24.4851 279.427 21.1406 279.427H21.0832C19.0461 279.417 17.0225 278.91 15.2354 277.957L14.9516 277.805H10.195V273.048L10.0429 272.765C9.09025 270.978 8.58351 268.954 8.57337 266.917C8.55986 263.549 9.84699 260.387 12.2084 258.005C14.5665 255.623 17.7184 254.306 21.0866 254.292H21.144C22.8332 254.292 24.4716 254.62 26.0155 255.268C27.5222 255.9 28.8736 256.809 30.0357 257.971C31.1944 259.13 32.1066 260.485 32.7383 261.991C33.3937 263.552 33.7214 265.207 33.7147 266.917C33.6944 270.282 32.3735 273.434 29.9951 275.792Z" fill="white"></path><path d="M17.28 205.2V222H14.16V214.8H5.472V222H2.352V205.2H5.472V212.136H14.16V205.2H17.28ZM26.4326 209.04C28.3206 209.04 29.7606 209.496 30.7526 210.408C31.7606 211.304 32.2646 212.664 32.2646 214.488V222H29.4326V220.44C29.0646 221 28.5366 221.432 27.8486 221.736C27.1766 222.024 26.3606 222.168 25.4006 222.168C24.4406 222.168 23.6006 222.008 22.8806 221.688C22.1606 221.352 21.6006 220.896 21.2006 220.32C20.8166 219.728 20.6246 219.064 20.6246 218.328C20.6246 217.176 21.0486 216.256 21.8966 215.568C22.7606 214.864 24.1126 214.512 25.9526 214.512H29.2646V214.32C29.2646 213.424 28.9926 212.736 28.4486 212.256C27.9206 211.776 27.1286 211.536 26.0726 211.536C25.3526 211.536 24.6406 211.648 23.9366 211.872C23.2486 212.096 22.6646 212.408 22.1846 212.808L21.0086 210.624C21.6806 210.112 22.4886 209.72 23.4326 209.448C24.3766 209.176 25.3766 209.04 26.4326 209.04ZM26.0246 219.984C26.7766 219.984 27.4406 219.816 28.0166 219.48C28.6086 219.128 29.0246 218.632 29.2646 217.992V216.504H26.1686C24.4406 216.504 23.5766 217.072 23.5766 218.208C23.5766 218.752 23.7926 219.184 24.2246 219.504C24.6566 219.824 25.2566 219.984 26.0246 219.984ZM48.2649 209.184V222H45.2889V211.728H38.9769V222H35.9769V209.184H48.2649ZM52.3129 209.184H55.3129V217.632L62.3929 209.184H65.1289V222H62.1289V213.552L55.0729 222H52.3129V209.184ZM74.9964 222.168C73.6684 222.168 72.4764 221.888 71.4204 221.328C70.3644 220.768 69.5404 219.992 68.9484 219C68.3564 217.992 68.0604 216.856 68.0604 215.592C68.0604 214.328 68.3564 213.2 68.9484 212.208C69.5404 211.216 70.3564 210.44 71.3964 209.88C72.4524 209.32 73.6524 209.04 74.9964 209.04C76.2604 209.04 77.3644 209.296 78.3084 209.808C79.2684 210.32 79.9884 211.056 80.4684 212.016L78.1644 213.36C77.7964 212.768 77.3324 212.328 76.7724 212.04C76.2284 211.736 75.6284 211.584 74.9724 211.584C73.8524 211.584 72.9244 211.952 72.1884 212.688C71.4524 213.408 71.0844 214.376 71.0844 215.592C71.0844 216.808 71.4444 217.784 72.1644 218.52C72.9004 219.24 73.8364 219.6 74.9724 219.6C75.6284 219.6 76.2284 219.456 76.7724 219.168C77.3324 218.864 77.7964 218.416 78.1644 217.824L80.4684 219.168C79.9724 220.128 79.2444 220.872 78.2844 221.4C77.3404 221.912 76.2444 222.168 74.9964 222.168ZM87.8858 209.04C89.7738 209.04 91.2138 209.496 92.2058 210.408C93.2138 211.304 93.7178 212.664 93.7178 214.488V222H90.8858V220.44C90.5178 221 89.9898 221.432 89.3018 221.736C88.6298 222.024 87.8138 222.168 86.8538 222.168C85.8938 222.168 85.0538 222.008 84.3338 221.688C83.6138 221.352 83.0538 220.896 82.6538 220.32C82.2698 219.728 82.0778 219.064 82.0778 218.328C82.0778 217.176 82.5018 216.256 83.3498 215.568C84.2138 214.864 85.5658 214.512 87.4058 214.512H90.7178V214.32C90.7178 213.424 90.4458 212.736 89.9018 212.256C89.3738 211.776 88.5818 211.536 87.5258 211.536C86.8058 211.536 86.0938 211.648 85.3898 211.872C84.7018 212.096 84.1178 212.408 83.6378 212.808L82.4618 210.624C83.1338 210.112 83.9418 209.72 84.8858 209.448C85.8298 209.176 86.8298 209.04 87.8858 209.04ZM87.4778 219.984C88.2298 219.984 88.8938 219.816 89.4698 219.48C90.0618 219.128 90.4778 218.632 90.7178 217.992V216.504H87.6218C85.8938 216.504 85.0298 217.072 85.0298 218.208C85.0298 218.752 85.2458 219.184 85.6778 219.504C86.1098 219.824 86.7098 219.984 87.4778 219.984ZM107.582 211.728H103.094V222H100.094V211.728H95.5821V209.184H107.582V211.728ZM116.19 213.408C117.822 213.408 119.07 213.776 119.934 214.512C120.814 215.248 121.254 216.288 121.254 217.632C121.254 219.04 120.774 220.128 119.814 220.896C118.854 221.664 117.502 222.04 115.758 222.024L109.758 222V209.184H112.758V213.384L116.19 213.408ZM115.494 219.816C116.374 219.832 117.046 219.648 117.51 219.264C117.974 218.88 118.206 218.32 118.206 217.584C118.206 216.864 117.982 216.336 117.534 216C117.086 215.664 116.406 215.488 115.494 215.472L112.758 215.448V219.792L115.494 219.816ZM130.524 209.184H133.524V214.392H139.98V209.184H142.98V222H139.98V216.936H133.524V222H130.524V209.184ZM151.776 209.04C153.664 209.04 155.104 209.496 156.096 210.408C157.104 211.304 157.608 212.664 157.608 214.488V222H154.776V220.44C154.408 221 153.88 221.432 153.192 221.736C152.52 222.024 151.704 222.168 150.744 222.168C149.784 222.168 148.944 222.008 148.224 221.688C147.504 221.352 146.944 220.896 146.544 220.32C146.16 219.728 145.968 219.064 145.968 218.328C145.968 217.176 146.392 216.256 147.24 215.568C148.104 214.864 149.456 214.512 151.296 214.512H154.608V214.32C154.608 213.424 154.336 212.736 153.792 212.256C153.264 211.776 152.472 211.536 151.416 211.536C150.696 211.536 149.984 211.648 149.28 211.872C148.592 212.096 148.008 212.408 147.528 212.808L146.352 210.624C147.024 210.112 147.832 209.72 148.776 209.448C149.72 209.176 150.72 209.04 151.776 209.04ZM151.368 219.984C152.12 219.984 152.784 219.816 153.36 219.48C153.952 219.128 154.368 218.632 154.608 217.992V216.504H151.512C149.784 216.504 148.92 217.072 148.92 218.208C148.92 218.752 149.136 219.184 149.568 219.504C150 219.824 150.6 219.984 151.368 219.984ZM173.921 222V213.504L169.601 220.656H168.305L164.057 213.48V222H161.321V209.184H164.465L169.025 217.2L173.801 209.184H176.609L176.633 222H173.921ZM181.569 213.024C181.025 213.024 180.561 212.84 180.177 212.472C179.793 212.088 179.601 211.608 179.601 211.032C179.601 210.44 179.785 209.96 180.153 209.592C180.537 209.224 181.009 209.04 181.569 209.04C182.129 209.04 182.593 209.224 182.961 209.592C183.345 209.96 183.537 210.44 183.537 211.032C183.537 211.608 183.345 212.088 182.961 212.472C182.577 212.84 182.113 213.024 181.569 213.024ZM181.569 222.168C181.025 222.168 180.561 221.984 180.177 221.616C179.793 221.232 179.601 220.752 179.601 220.176C179.601 219.584 179.785 219.104 180.153 218.736C180.537 218.368 181.009 218.184 181.569 218.184C182.129 218.184 182.593 218.368 182.961 218.736C183.345 219.104 183.537 219.584 183.537 220.176C183.537 220.752 183.345 221.232 182.961 221.616C182.577 221.984 182.113 222.168 181.569 222.168Z" fill="#121214"></path><defs><clipPath id="clip0_23_2929"><rect width="23" height="23" fill="white" transform="translate(11 11)"></rect></clipPath><clipPath id="clip1_23_2929"><rect width="23" height="23" fill="white" transform="translate(345 11)"></rect></clipPath><clipPath id="clip2_23_2929"><rect width="41" height="41" fill="white" transform="translate(62 247)"></rect></clipPath></defs></svg>